<svg width="821" height="64" viewBox="0 0 821 64" xmlns="http://www.w3.org/2000/svg">
    <g fill="#FFF" fill-rule="nonzero">
        <path d="M29.357 63.021H0V1.101h27.375c13.13 0 21.8 6.241 21.8 16.643 0 6.24-4.087 11.258-9.413 13.216 7.184.979 12.758 7.342 12.758 14.562-.124 11.013-9.042 17.499-23.163 17.499m-6.69-48.092h-3.22v11.503h3.22c5.699 0 8.548-1.958 8.548-5.996.124-4.16-2.973-5.507-8.547-5.507m3.22 22.761h-6.317v11.503h6.318c5.821 0 7.927-2.203 7.927-5.996.124-3.794-2.725-5.507-7.927-5.507M110.49 63.021l-3.344-11.258H88.814L85.469 63.02H65.403L87.08 1.101h22.667l21.677 61.92h-20.933zm-12.51-41.85-4.707 15.663h9.414L97.98 21.17zM176.389 64c-17.342 0-30.348-8.81-30.348-29.491V1.1h20.934v35.61c0 6.73 3.592 10.891 9.414 10.891 5.821 0 9.414-4.283 9.414-10.89V1.101h20.933v33.407C206.736 55.189 193.73 64 176.39 64M249.719 64c-10.157 0-19.076-3.671-24.898-8.688l8.3-13.094c5.821 4.65 10.9 6.73 16.35 6.73 2.973 0 5.203-1.346 5.203-3.426 0-2.937-2.354-4.038-10.034-6.363-11.396-3.427-17.218-8.322-17.218-18.478 0-13.461 10.653-20.559 25.889-20.559 8.175 0 16.103 2.937 20.314 6.241l-8.299 13.461c-4.335-3.06-8.299-4.65-12.882-4.65-3.964 0-5.45 1.713-5.45 3.426 0 1.958 1.486 3.182 9.661 5.507 11.272 3.182 17.466 7.587 17.466 19.212C274.245 55.68 264.83 64 249.719 64M324.411 64c-19.075 0-32.7-13.216-32.7-31.694S305.83.122 324.782.122c10.033 0 16.722 4.283 22.172 8.811l-10.28 13.828c-3.469-3.426-6.813-5.751-12.264-5.751-6.936 0-12.139 5.996-12.139 14.806 0 8.934 4.955 15.297 13.378 15.297 4.583 0 8.919-2.08 12.635-5.385l10.033 13.461C342.248 60.451 335.436 64 324.411 64M404.802 63.021v-21.66h-15.731v21.66h-20.934V1.101h20.934v22.761h15.731V1.102h21.058V63.02zM543.906 63.021V1.101h20.067v46.134h20.438v15.786zM629.623 64c-19.695 0-33.692-13.46-33.692-31.939C595.931 13.583 610.052 0 629.747 0s33.692 13.46 33.692 31.939C663.563 50.417 649.32 64 629.623 64m0-47.48c-7.68 0-13.13 6.486-13.13 15.419s5.698 15.663 13.254 15.663c7.68 0 13.13-6.485 13.13-15.418.124-8.934-5.574-15.664-13.254-15.664M727.85 63.021V32.795l-9.785 17.989h-9.538l-9.909-17.989v30.226h-19.819V1.101h20.438l14.245 24.72 13.13-24.72h22.173v61.92zM797.96 63.021h-29.48V1.101h27.375c13.13 0 21.8 6.241 21.8 16.643 0 6.24-4.087 11.258-9.413 13.216 7.184.979 12.758 7.342 12.758 14.562 0 11.013-8.919 17.499-23.04 17.499m-6.688-48.092h-3.221v11.503h3.22c5.699 0 8.547-1.958 8.547-5.996.124-4.16-2.972-5.507-8.546-5.507m3.22 22.761h-6.317v11.503h6.317c5.822 0 7.928-2.203 7.928-5.996.124-3.794-2.725-5.507-7.928-5.507M474.664 22.027h20.314v20.069h-20.314z"/>
        <path opacity=".85" d="M474.664 1.101h20.314v20.925h-20.314zM474.664 42.096h20.314v20.925h-20.314z"/>
        <path opacity=".65" d="M453.482 22.027h21.305v20.069h-21.305zM494.978 22.027h21.182v20.069h-21.182z"/>
    </g>
</svg>
