<svg width="749" height="259" viewBox="0 0 749 259" xmlns="http://www.w3.org/2000/svg" xmlns:xlink="http://www.w3.org/1999/xlink">
    <defs>
        <path id="985s69c9ha" d="M0 0h742.359v191.076H0z"/>
        <path id="noe910a94c" d="M0 0h742.359v191.076H0z"/>
        <path id="p7s32hoa9e" d="M0 0h742.359v191.076H0z"/>
        <path id="1lv3xcu24g" d="M0 0h742.359v191.076H0z"/>
        <path id="p60nv69e5i" d="M0 0h742.359v191.076H0z"/>
    </defs>
    <g fill="none" fill-rule="evenodd">
        <g transform="translate(.614 .597)">
            <mask id="mp4gmf324b" fill="#fff">
                <use xlink:href="#985s69c9ha"/>
            </mask>
            <path d="M172.5 18.07h-3.055v5.52h3.018c2.78 0 3.791-1.067 3.791-2.907s-1.343-2.65-3.79-2.65m-1.51-10.93h-1.509v5.52h1.51c2.686 0 4.085-.938 4.085-2.907 0-1.97-1.473-2.65-4.086-2.65m3.184 23.13h-13.895V.496h12.883c6.239 0 10.361 2.963 10.361 7.987a6.808 6.808 0 0 1-4.417 6.367 7.122 7.122 0 0 1 6.037 6.974c0 5.336-4.233 8.446-10.932 8.446" fill="#00A0AF" fill-rule="nonzero" mask="url(#mp4gmf324b)"/>
        </g>
        <path d="m207.382 10.718 2.245 7.544h-4.49l2.245-7.544zm-5.135-9.624-10.324 29.773h9.515l1.582-5.428h8.724l1.601 5.428h10.085L213.014 1.094h-10.767z" fill="#00A0AF" fill-rule="nonzero"/>
        <g transform="translate(.614 .597)">
            <mask id="opmfimlucd" fill="#fff">
                <use xlink:href="#noe910a94c"/>
            </mask>
            <g mask="url(#opmfimlucd)" fill="#00A0AF" fill-rule="nonzero">
                <path d="M244 30.748c-8.246 0-14.448-4.232-14.448-14.187V.478h9.957v17.113c0 3.22 1.711 5.245 4.49 5.245 2.78 0 4.49-2.024 4.49-5.245V.478h9.957v16.083c0 9.955-6.22 14.187-14.447 14.187M278.856 30.748a18.166 18.166 0 0 1-11.87-4.158l3.993-6.22a12.24 12.24 0 0 0 7.748 3.22c1.436 0 2.448-.607 2.448-1.638 0-1.416-1.14-1.95-4.766-3.054-5.522-1.675-8.172-3.993-8.172-8.888 0-6.459 5.061-9.918 12.294-9.918a16.787 16.787 0 0 1 9.662 3.018l-3.92 6.495a10.068 10.068 0 0 0-6.11-2.245c-1.84 0-2.577.81-2.577 1.657 0 .846.7 1.527 4.62 2.668 5.374 1.545 8.318 3.68 8.318 9.2 0 5.944-4.49 9.937-11.668 9.937M314.357 30.748a14.835 14.835 0 0 1-15.55-15.236A15.216 15.216 0 0 1 314.522 0a15.424 15.424 0 0 1 10.527 4.25l-4.895 6.643a7.804 7.804 0 0 0-5.834-2.778c-3.313 0-5.76 2.852-5.76 7.14 0 4.287 2.373 7.36 6.33 7.36a8.871 8.871 0 0 0 6-2.595l4.767 6.477a15.847 15.847 0 0 1-11.3 4.233"/>
            </g>
        </g>
        <path fill="#00A0AF" fill-rule="nonzero" d="M353.178 1.094v10.967h-7.509V1.094h-9.938v29.773h9.938V20.47h7.509v10.397h9.957V1.094zM419.23 1.094v29.773h19.287v-7.6h-9.736V1.094z"/>
        <g transform="translate(.614 .597)">
            <mask id="06dcc2jtmf" fill="#fff">
                <use xlink:href="#p7s32hoa9e"/>
            </mask>
            <path d="M459.399 7.912c-3.68 0-6.257 3.147-6.257 7.36 0 4.215 2.705 7.508 6.33 7.508 3.626 0 6.24-3.128 6.24-7.36s-2.688-7.508-6.313-7.508m0 22.836c-9.35 0-16.012-6.44-16.012-15.328 0-8.888 6.736-15.42 16.085-15.42 9.35 0 15.993 6.44 15.993 15.328 0 8.888-6.735 15.42-16.066 15.42" fill="#00A0AF" fill-rule="nonzero" mask="url(#06dcc2jtmf)"/>
        </g>
        <path fill="#00A0AF" fill-rule="nonzero" d="m506.096 1.094-6.275 11.869-6.792-11.869h-9.662v29.773h9.386V16.349l4.73 8.648h4.528l4.619-8.648v14.518h9.956V1.094z"/>
        <g transform="translate(.614 .597)">
            <mask id="5tet4orz8h" fill="#fff">
                <use xlink:href="#1lv3xcu24g"/>
            </mask>
            <path d="M537.708 18.07h-3.019v5.52h3.019c2.779 0 3.79-1.067 3.79-2.907s-1.343-2.65-3.79-2.65m-1.51-10.93h-1.509v5.52h1.51c2.705 0 4.085-.938 4.085-2.907 0-1.97-1.472-2.65-4.086-2.65m3.166 23.204h-13.987V.497h13.03c6.239 0 10.361 2.962 10.361 7.986a6.808 6.808 0 0 1-4.49 6.367 7.122 7.122 0 0 1 6.128 6.974c0 5.336-4.233 8.446-10.932 8.446" fill="#00A0AF" fill-rule="nonzero" mask="url(#5tet4orz8h)"/>
        </g>
        <path fill="#00A0AF" fill-rule="nonzero" d="M386.36 11.141h9.625v9.661h-9.625z"/>
        <path fill="#73C6A1" fill-rule="nonzero" d="M386.36 1.075h9.625V11.14h-9.625zM386.36 20.82h9.625v10.065h-9.625z"/>
        <path fill="#50C8E8" fill-rule="nonzero" d="M376.257 11.141h10.104v9.661h-10.104zM395.986 11.141h10.049v9.661h-10.049z"/>
        <path fill="#151F47" fill-rule="nonzero" d="M.614 80.734h20.999v106.597H.614zM85.346 76.538v110.793h21.311l-.441-63.005 74.59 67.348h.59V80.734H160.25l.423 64.164-74.444-68.36zM311.77 80.734v20.278h-45.643v24.179h39.55v20.296h-39.55v41.844H245.13V80.734z"/>
        <g transform="translate(.614 .597)">
            <mask id="ppjk4mhezj" fill="#fff">
                <use xlink:href="#p60nv69e5i"/>
            </mask>
            <g mask="url(#ppjk4mhezj)" fill="#151F47" fill-rule="nonzero">
                <path d="M389.52 157.053a23.316 23.316 0 0 0 8.115 7.526 21.462 21.462 0 0 0 10.859 2.889 23.21 23.21 0 0 0 11.447-2.89 22.286 22.286 0 0 0 8.171-7.525 17.7 17.7 0 0 0 2.982-9.716v-67.2h20.704v67.642a37.883 37.883 0 0 1-5.797 20.627 39.86 39.86 0 0 1-15.717 14.353 48.685 48.685 0 0 1-43.525 0 39.437 39.437 0 0 1-15.57-14.353 38.288 38.288 0 0 1-5.724-20.627V80.137h21.017v67.2a17.332 17.332 0 0 0 3.037 9.716M546.1 98.243a18.222 18.222 0 0 0-10.785 2.76 9.476 9.476 0 0 0-3.846 8.244c0 3.386 1.84 6.354 5.52 8.906a69.645 69.645 0 0 0 14.853 7.36 61.952 61.952 0 0 1 12.883 6.294 28.468 28.468 0 0 1 8.907 9.77 31.72 31.72 0 0 1 3.534 15.789 28.886 28.886 0 0 1-4.27 15.291 29.96 29.96 0 0 1-12.533 11.151 43.734 43.734 0 0 1-19.692 4.122 65.932 65.932 0 0 1-18.975-2.816 59.688 59.688 0 0 1-17.539-8.63l9.202-16.358a50.337 50.337 0 0 0 12.607 6.661 37.678 37.678 0 0 0 12.754 2.613 22.732 22.732 0 0 0 11.576-2.834 9.77 9.77 0 0 0 4.932-9.2c0-5.508-5.165-10.286-15.496-14.335a137.58 137.58 0 0 1-15.22-6.955 31.082 31.082 0 0 1-10.49-9.55 26.255 26.255 0 0 1-4.417-15.641c0-9.176 3.012-16.537 9.036-22.082 6.024-5.544 14.067-8.611 24.128-9.2a63.006 63.006 0 0 1 19.84 2.668 67.62 67.62 0 0 1 15.495 7.618l-7.95 16.064c-9.276-5.115-17.343-7.673-24.201-7.673"/>
            </g>
        </g>
        <path fill="#151F47" fill-rule="nonzero" d="M707.362 80.734v20.278h-51.715v22.743h45.77v20.278h-45.77v23.02h53.739v20.278h-74.738V80.734zM111.35 253.98a8.282 8.282 0 0 1-6.349-2.871l1.84-1.84a6.497 6.497 0 0 0 4.638 2.116c2.503 0 3.681-.865 3.681-2.595 0-1.38-1.049-2.06-4.03-2.962-3.681-1.123-5.522-2.061-5.522-5.263s2.614-4.968 5.908-4.968a7.951 7.951 0 0 1 5.834 2.429l-1.84 1.84a5.393 5.393 0 0 0-4.16-1.711c-2.098 0-3 1.012-3 2.208 0 1.196.829 1.84 3.92 2.797 3.516 1.067 5.706 2.19 5.706 5.373 0 3.183-2.061 5.447-6.626 5.447zM123.037 238.578a1.712 1.712 0 1 1-.074-3.422 1.712 1.712 0 0 1 .074 3.422zm-1.325 15.126v-13.396h2.632v13.396h-2.632zM128.466 253.704V236.48l2.632-1.38v18.604zM136.545 238.578a1.712 1.712 0 1 1 1.694-1.693c0 .935-.759 1.693-1.694 1.693zm-1.325 15.126v-13.396h2.632v13.396h-2.632zM150.275 244.153a4.362 4.362 0 0 0-3.258-1.619c-1.84 0-3.147 1.711-3.147 4.435 0 2.723 1.123 4.508 3.22 4.508a3.92 3.92 0 0 0 3.037-1.656l1.694 1.656a5.65 5.65 0 0 1-4.804 2.503c-3.276 0-5.797-2.742-5.797-6.938 0-4.195 2.613-7.01 5.87-7.01a5.945 5.945 0 0 1 4.749 2.263l-1.564 1.858zM160.01 253.98c-3.386 0-5.907-2.779-5.907-6.956 0-4.177 2.613-6.992 5.981-6.992s5.963 2.723 5.963 6.918c0 4.196-2.595 7.03-6.037 7.03zm0-11.446c-1.987 0-3.22 1.84-3.22 4.416 0 2.576 1.362 4.527 3.35 4.527 1.987 0 3.294-2.006 3.294-4.453-.037-2.742-1.344-4.49-3.46-4.49h.036zM177.42 253.704v-7.582c0-2.705-1.012-3.68-2.742-3.68s-2.76 1.251-2.76 3.423v7.839h-2.632v-13.396h2.613v1.27a4.123 4.123 0 0 1 3.368-1.546c3.11 0 4.767 2.042 4.767 5.998v7.674h-2.614zM194.628 247.944h-8.852c.276 2.576 1.73 3.68 3.368 3.68a4.712 4.712 0 0 0 2.908-1.067l1.546 1.693a6.203 6.203 0 0 1-4.62 1.748c-3.129 0-5.779-2.521-5.779-6.956 0-4.434 2.393-6.992 5.871-6.992 3.791 0 5.632 3.073 5.632 6.698 0 .552-.055.902-.074 1.196zm-5.742-5.52c-1.84 0-2.834 1.214-3.073 3.367h6.33c-.22-1.858-1.085-3.386-3.257-3.386v.019zM216.069 253.704v-7.968h-8.208v7.968h-2.687v-17.868h2.687v7.232h8.208v-7.232h2.687v17.868zM227.737 258.433h-2.78l1.841-4.987-4.914-13.138h2.871l2.209 6.55c.405 1.178 1.012 3.165 1.16 3.92.239-.791.79-2.705 1.214-3.864l2.264-6.606h2.87l-6.735 18.125zM244.816 253.704v-1.27a5.153 5.153 0 0 1-3.497 1.546c-2.89 0-5.172-2.08-5.172-7.195 0-4.6 2.503-6.753 5.282-6.753 1.29.03 2.51.58 3.387 1.527v-5.116l2.595-1.343v18.604h-2.595zm0-9.495a4.325 4.325 0 0 0-3.147-1.84c-1.84 0-2.908 1.435-2.908 4.269 0 3.367 1.067 4.857 3.018 4.857a4.141 4.141 0 0 0 3.037-1.71v-5.576zM258.563 243.086a3.92 3.92 0 0 0-2.024-.478c-1.656 0-2.632 1.177-2.632 3.44v7.656h-2.632v-13.396h2.632v1.27a3.773 3.773 0 0 1 3.074-1.546 3.902 3.902 0 0 1 2.263.552l-.68 2.502zM266.588 253.98c-3.368 0-5.89-2.779-5.89-6.956 0-4.177 2.595-6.992 5.982-6.992 3.386 0 5.962 2.723 5.962 6.918 0 4.196-2.595 7.03-6.054 7.03zm0-11.446c-1.988 0-3.221 1.84-3.221 4.416 0 2.576 1.362 4.527 3.35 4.527 1.987 0 3.294-2.006 3.294-4.453-.019-2.742-1.325-4.49-3.442-4.49h.019zM280.225 258.635l-.902-1.987c3.68-.184 4.601-1.215 4.601-3.993v-.221a5.117 5.117 0 0 1-3.478 1.546c-2.853 0-5.153-2.08-5.153-7.195 0-4.6 2.52-6.753 5.282-6.753 1.28.02 2.494.574 3.349 1.527v-1.251h2.632v12.126c0 4.066-1.49 6.035-6.331 6.201zm3.68-14.426a4.325 4.325 0 0 0-3.146-1.84c-1.84 0-2.908 1.435-2.908 4.269 0 3.367 1.067 4.857 3 4.857a4.178 4.178 0 0 0 3.055-1.71v-5.576zM301.224 247.944h-8.871c.294 2.576 1.84 3.68 3.368 3.68a4.767 4.767 0 0 0 2.926-1.067l1.546 1.693a6.221 6.221 0 0 1-4.62 1.748c-3.128 0-5.797-2.521-5.797-6.956 0-4.434 2.411-6.992 5.871-6.992 3.81 0 5.65 3.073 5.65 6.698 0 .552-.055.902-.073 1.196zm-5.742-5.52c-1.84 0-2.835 1.214-3.074 3.367h6.24c-.13-1.858-1.013-3.386-3.166-3.386v.019zM304.684 253.704V236.48l2.631-1.38v18.604zM325.296 253.98c-4.509 0-7.582-3.68-7.582-9.201 0-5.52 3.11-9.2 7.637-9.2 4.528 0 7.601 3.68 7.601 9.2s-3.11 9.2-7.656 9.2zm0-15.77c-2.834 0-4.822 2.484-4.822 6.532s2.061 6.588 4.914 6.588c2.853 0 4.859-2.466 4.859-6.533 0-4.066-2.117-6.587-4.97-6.587h.02zM344.491 253.704v-7.582c0-2.705-1.03-3.68-2.76-3.68-1.73 0-2.76 1.251-2.76 3.423v7.839h-2.633v-13.396h2.632v1.27a4.123 4.123 0 0 1 3.368-1.546c3.11 0 4.785 2.042 4.785 5.998v7.674h-2.632zM361.68 247.944h-8.852c.276 2.576 1.73 3.68 3.368 3.68a4.712 4.712 0 0 0 2.908-1.067l1.564 1.693a6.221 6.221 0 0 1-4.619 1.748c-3.147 0-5.797-2.521-5.797-6.956 0-4.434 2.392-6.992 5.87-6.992 3.792 0 5.632 3.073 5.632 6.698 0 .4-.025.8-.073 1.196zm-5.741-5.52c-1.84 0-2.835 1.214-3.055 3.367h6.22c-.129-1.858-.994-3.386-3.165-3.386v.019zM364.478 245.662v-2.594h6.386v2.594zM379.459 253.704h-4.877v-17.868h4.877c4.803 0 8.705 2.631 8.705 8.943 0 6.312-4.03 8.925-8.705 8.925zm0-15.255h-2.19v12.66h2.19c4.233 0 5.981-2.576 5.981-6.33s-1.748-6.33-5.981-6.33zM399.206 253.704v-1.325a5.246 5.246 0 0 1-3.68 1.6 4.325 4.325 0 0 1-4.638-4.508c0-2.98 2.3-4.342 5.337-4.342a7.363 7.363 0 0 1 2.981.515v-.994c0-1.453-.883-2.282-2.521-2.282a6.755 6.755 0 0 0-3.497.847l-1.03-1.987a8.338 8.338 0 0 1 4.6-1.196c2.982 0 5.025 1.453 5.025 4.49v9.2l-2.577-.018zm0-5.723a6.755 6.755 0 0 0-3.055-.57c-1.693 0-2.76.754-2.76 1.987s.846 2.208 2.576 2.208a4.196 4.196 0 0 0 3.24-1.711v-1.914zM409.88 258.433h-2.797l1.95-4.987-4.931-13.138h2.89l2.19 6.55c.404 1.178 1.011 3.165 1.177 3.92.22-.791.791-2.705 1.196-3.864l2.264-6.606h2.853l-6.791 18.125zM433.364 253.98c-4.62 0-7.546-3.791-7.546-9.201s2.927-9.2 7.546-9.2a6.405 6.405 0 0 1 6.073 3.348l-2.374 1.473a3.865 3.865 0 0 0-3.68-2.135c-3.11 0-4.786 2.521-4.786 6.532 0 4.012 1.675 6.533 4.785 6.533a4.251 4.251 0 0 0 3.939-2.227l2.227 1.472a6.828 6.828 0 0 1-6.184 3.405zM447.756 253.98c-3.368 0-5.89-2.779-5.89-6.956 0-4.177 2.595-6.992 5.963-6.992s5.982 2.723 5.982 6.918c0 4.196-2.614 7.03-6.055 7.03zm0-11.446c-1.988 0-3.22 1.84-3.22 4.416 0 2.576 1.343 4.527 3.349 4.527 2.006 0 3.294-2.006 3.294-4.453-.018-2.742-1.38-4.49-3.442-4.49h.019zM465.184 253.704v-7.582c0-2.705-1.012-3.68-2.76-3.68-1.749 0-2.76 1.251-2.76 3.423v7.839h-2.614v-13.396h2.613v1.27a4.178 4.178 0 0 1 3.368-1.546c3.129 0 4.785 2.042 4.785 5.998v7.674h-2.632zM477.883 253.372a5.375 5.375 0 0 1-2.577.608c-1.84 0-3-1.141-3-3.533V242.7h-1.84v-2.392h1.84v-3.828l2.577-1.38v5.208h3.313v2.392h-3.313v7.36c0 1.251.405 1.601 1.38 1.601a4.233 4.233 0 0 0 1.933-.534l-.313 2.245zM489.091 253.704v-1.325a5.282 5.282 0 0 1-3.68 1.6 4.307 4.307 0 0 1-4.639-4.508c0-2.98 2.3-4.342 5.338-4.342a7.363 7.363 0 0 1 2.981.515v-.994c0-1.453-.902-2.282-2.521-2.282a6.755 6.755 0 0 0-3.497.847l-1.03-1.987a8.338 8.338 0 0 1 4.6-1.196c2.982 0 5.025 1.453 5.025 4.49v9.2l-2.577-.018zm0-5.723a6.755 6.755 0 0 0-3.055-.57c-1.693 0-2.76.754-2.76 1.987s.846 2.208 2.576 2.208a4.196 4.196 0 0 0 3.239-1.711v-1.914zM503.87 244.153a4.417 4.417 0 0 0-3.277-1.619c-1.84 0-3.147 1.711-3.147 4.435 0 2.723 1.123 4.508 3.221 4.508a3.92 3.92 0 0 0 3.037-1.656l1.693 1.656a5.65 5.65 0 0 1-4.804 2.503c-3.275 0-5.797-2.742-5.797-6.938 0-4.195 2.614-7.01 5.871-7.01a5.945 5.945 0 0 1 4.748 2.263l-1.546 1.858zM515.17 253.372a5.522 5.522 0 0 1-2.577.608c-1.84 0-3.018-1.141-3.018-3.533V242.7h-1.84v-2.392h1.84v-3.828l2.576-1.38v5.208h3.313v2.392h-3.313v7.36c0 1.251.405 1.601 1.38 1.601a4.233 4.233 0 0 0 1.933-.534l-.295 2.245zM526.304 253.704v-17.868h2.632v15.236h8.907v2.632zM551.554 247.944h-8.87c.294 2.576 1.748 3.68 3.367 3.68a4.767 4.767 0 0 0 2.926-1.067l1.546 1.693a6.221 6.221 0 0 1-4.62 1.748c-3.146 0-5.796-2.521-5.796-6.956 0-4.434 2.41-6.992 5.87-6.992 3.81 0 5.65 3.073 5.65 6.698 0 .552-.055.902-.073 1.196zm-5.742-5.52c-1.84 0-2.834 1.214-3.074 3.367h6.24c-.13-1.858-1.013-3.386-3.166-3.386v.019zM563.02 253.704v-7.582c0-2.705-1.013-3.68-2.761-3.68-1.748 0-2.742 1.251-2.742 3.423v7.839h-2.632v-13.396h2.632v1.27a4.123 4.123 0 0 1 3.368-1.546c3.11 0 4.766 2.042 4.766 5.998v7.674h-2.631zM573.767 253.98a9.037 9.037 0 0 1-5.134-1.712l1.196-1.987a7.05 7.05 0 0 0 3.902 1.325c1.674 0 2.466-.534 2.466-1.472 0-.939-1.178-1.51-3.129-2.245-2.87-1.123-3.92-2.098-3.92-4.214 0-2.392 1.84-3.68 4.564-3.68a7.97 7.97 0 0 1 4.546 1.472l-1.141 2.024a5.853 5.853 0 0 0-3.478-1.16c-1.27 0-1.84.516-1.84 1.234 0 .717.46 1.14 2.484 1.84 2.981 1.159 4.509 1.969 4.509 4.49 0 3.09-2.393 4.085-5.025 4.085zM592.705 247.944h-8.87c.276 2.576 1.748 3.68 3.367 3.68a4.675 4.675 0 0 0 2.908-1.067l1.565 1.693a6.221 6.221 0 0 1-4.62 1.748c-3.147 0-5.797-2.521-5.797-6.956 0-4.434 2.392-6.992 5.87-6.992 3.81 0 5.65 3.073 5.65 6.698 0 .552-.054.902-.073 1.196zm-5.76-5.52c-1.749 0-2.834 1.214-3.055 3.367h6.22c-.11-1.858-.994-3.386-3.165-3.386v.019zM600.14 253.98a9.074 9.074 0 0 1-5.134-1.712l1.214-1.987a7.05 7.05 0 0 0 3.902 1.325c1.656 0 2.448-.534 2.448-1.472 0-.939-1.178-1.51-3.11-2.245-2.89-1.123-3.94-2.098-3.94-4.214 0-2.392 1.841-3.68 4.565-3.68a7.97 7.97 0 0 1 4.546 1.472l-1.141 2.024a5.816 5.816 0 0 0-3.479-1.16c-1.27 0-1.84.516-1.84 1.234 0 .717.46 1.14 2.485 1.84 2.981 1.159 4.509 1.969 4.509 4.49 0 3.09-2.393 4.085-5.025 4.085zM748.034 90.78a10.157 10.157 0 0 1-17.336 7.208 10.156 10.156 0 0 1 7.177-17.346 9.957 9.957 0 0 1 10.16 10.139zm-1.84 0a8.355 8.355 0 0 0-8.355-8.353 8.355 8.355 0 1 0 0 16.708 8.172 8.172 0 0 0 8.392-8.354h-.037zm-3.515-2.244a3.165 3.165 0 0 1-2.19 3.238l2.135 4.361h-2.65l-1.988-4.066h-1.84v4.066h-2.375v-11.04h5.153a3.368 3.368 0 0 1 3.792 3.44h-.037zm-2.393 0c0-.975-.589-1.399-1.564-1.399h-2.65v2.834h2.668c1.03.055 1.583-.442 1.583-1.38l-.037-.055z"/>
    </g>
</svg>
