<svg width="672" height="228" viewBox="0 0 672 228" xmlns="http://www.w3.org/2000/svg">
    <g fill-rule="nonzero" fill="none">
        <path d="M150.51 32H136V1.067h13.53c6.49 0 10.775 3.117 10.775 8.314 0 3.118-2.02 5.624-4.653 6.602 3.55.49 6.306 3.668 6.306 7.275-.061 5.502-4.47 8.742-11.449 8.742m-3.305-24.025h-1.592v5.746h1.592c2.816 0 4.224-.978 4.224-2.995.061-2.079-1.47-2.751-4.224-2.751m1.591 11.37h-3.122v5.747h3.122c2.878 0 3.918-1.1 3.918-2.996.062-1.895-1.346-2.75-3.918-2.75M191.345 32l-1.698-5.624h-9.31L178.638 32h-10.19l11.008-30.933h11.512L201.976 32h-10.63zm-6.353-20.908-2.39 7.826h4.78l-2.39-7.826zM224.69 32c-8.653 0-15.143-4.333-15.143-14.504V1.066h10.445V18.58c0 3.31 1.793 5.356 4.697 5.356 2.905 0 4.698-2.107 4.698-5.356V1.067h10.445v16.43c0 10.17-6.49 14.503-15.143 14.503M261.047 32c-5.125 0-9.625-1.84-12.563-4.352l4.188-6.56c2.937 2.33 5.5 3.372 8.25 3.372 1.5 0 2.625-.675 2.625-1.717 0-1.471-1.187-2.023-5.063-3.187-5.75-1.717-8.687-4.169-8.687-9.257C249.797 3.556 255.172 0 262.86 0c4.125 0 8.125 1.471 10.25 3.126l-4.188 6.744c-2.187-1.533-4.187-2.33-6.5-2.33-2 0-2.75.858-2.75 1.717 0 .98.75 1.594 4.875 2.758 5.688 1.594 8.813 3.801 8.813 9.625.062 6.191-4.688 10.36-12.313 10.36M298.258 32c-9.476 0-16.245-6.62-16.245-15.877 0-9.257 7.015-16.123 16.43-16.123 4.984 0 8.307 2.146 11.014 4.414l-5.107 6.927c-1.723-1.716-3.384-2.881-6.092-2.881-3.446 0-6.03 3.004-6.03 7.417 0 4.475 2.461 7.663 6.645 7.663 2.277 0 4.43-1.042 6.277-2.697l4.984 6.743c-3.015 2.636-6.4 4.414-11.876 4.414M338.418 32V21.18h-7.959V32h-10.59V1.067h10.59v11.37h7.959V1.067h10.653V32zM408.558 32V1.067h10.18v23.047h10.37V32zM451.25 32c-9.782 0-16.734-6.73-16.734-15.97 0-9.238 7.013-16.03 16.795-16.03 9.782 0 16.733 6.73 16.733 15.97.062 9.238-7.013 16.03-16.795 16.03m0-23.74c-3.814 0-6.52 3.243-6.52 7.71 0 4.466 2.83 7.831 6.582 7.831 3.814 0 6.521-3.243 6.521-7.71.061-4.466-2.768-7.831-6.583-7.831M500.955 32V16.9l-4.839 8.987h-4.717l-4.9-8.987V32h-9.802V1.067h10.108l7.044 12.349 6.494-12.35h10.965V32zM535.613 32h-14.57V1.067h13.529c6.49 0 10.775 3.117 10.775 8.314 0 3.118-2.02 5.624-4.653 6.602 3.551.49 6.306 3.668 6.306 7.275C547 28.76 542.592 32 535.613 32m-3.306-24.025h-1.592v5.746h1.592c2.816 0 4.224-.978 4.224-2.995.061-2.079-1.47-2.751-4.224-2.751m1.592 11.37h-3.123v5.747h3.123c2.877 0 3.918-1.1 3.918-2.996.061-1.895-1.347-2.75-3.918-2.75M373.947 11.733h9.734v9.6h-9.734z" fill="#009AA6"/>
        <path fill="#72CE9B" d="M373.947 1.067h9.734v10.667h-9.734zM373.947 21.333h9.734V32h-9.734z"/>
        <path fill="#5BC6E8" d="M363.132 11.733h10.816v9.6h-10.816zM383.682 11.733h10.816v9.6h-10.816z"/>
        <g fill="#BD4976">
            <g transform="translate(0 87)">
                <ellipse cx="102.652" cy="130.916" rx="10.067" ry="10.084"/>
                <path d="M132.135 122.992c0-.72-.36-1.08-1.079-1.44-8.63-5.763-15.82-10.085-28.404-10.085-12.585 0-19.776 4.322-28.405 10.085-1.079.72-1.438 2.16-.719 3.241.36.72 1.079 1.08 2.157 1.08.36 0 1.079 0 1.439-.36 7.91-5.402 14.741-9.364 25.528-9.364 11.146 0 17.618 3.602 25.528 9.364.36.36.719.36 1.438.36s1.438-.36 2.157-1.08c.36-.36.36-1.08.36-1.8z"/>
                <path d="M204.764 104.264c-8.63-12.245-21.214-21.249-35.596-25.21-.36 0-.719-.36-1.078-1.08v-1.441c8.629-13.326 11.505-29.533 8.629-45.02 0-1.08-1.079-1.8-1.798-1.8-14.741-2.882-30.202 0-43.505 7.563-.36.36-1.08.36-1.439 0-.36-.36-.719-.72-.719-1.08C125.303 21.788 116.314 8.823 104.09.54c-.72-.72-1.798-.72-2.877 0C88.99 9.184 80 21.79 76.045 36.195c0 .36-.36.72-.72 1.08h-1.437c-12.944-7.562-28.405-10.444-43.506-7.562-1.079 0-1.798 1.08-1.798 1.8-2.876 15.487.36 31.694 8.63 45.02.359.36.359 1.08 0 1.44 0 .36-.72.72-1.08 1.08C21.754 83.016 8.81 92.02.54 104.265c-.719.72-.719 1.801 0 2.882 12.225 17.647 31.64 28.092 52.135 28.092 5.034 0 10.068-1.08 14.742-3.242 1.078-.36 1.797-1.8 1.438-3.241-.36-.72-.72-1.08-1.438-1.44-.72-.361-1.439-.361-1.798 0-4.315 1.8-8.63 2.88-12.944 2.88-17.618 0-35.236-9.003-46.382-23.77-.36-.36-.36-1.44 0-1.8 8.63-11.165 20.854-18.728 34.517-21.61.36 0 1.079 0 1.438.36 1.079 1.441 2.517 2.882 3.955 4.322 11.865 11.885 28.405 18.368 45.304 18.368h22.292c17.258 0 33.797-6.843 45.303-18.368 1.438-1.44 2.517-2.88 3.955-4.322.36-.36 1.079-.72 1.438-.36 13.663 2.882 25.888 10.445 34.517 21.61.36.36.36 1.44 0 1.8-11.146 14.767-28.404 23.77-46.382 23.77-4.674 0-8.63-.72-12.944-2.88-.719-.361-1.438-.361-2.157 0-.72.36-1.079 1.08-1.438 1.44-.36 1.08.36 2.16 1.438 2.881 4.674 2.16 9.348 3.241 14.742 3.241 20.494 0 39.91-10.444 52.134-28.092.72-.72.72-1.8.36-2.52zM81.438 49.161c.72.36 1.079 1.08 1.798 1.8 10.786 10.805 16.899 25.211 16.899 40.338V94.9c0 .72-.36 1.08-.72 1.441-.359.36-1.078.36-1.797-.36C85.753 84.816 78.92 69.33 78.92 53.123V50.24c0-.72.36-1.08 1.079-1.44h.719c0-.36.36 0 .72.36zM80 40.517c2.876-13.686 10.427-25.93 21.573-34.214.36-.36.719-.36.719-.36.36 0 .72 0 .72.36 11.145 8.643 18.696 20.528 21.572 34.214 0 .72 0 1.08-.719 1.44-2.157 1.441-3.955 3.242-5.753 5.043-6.472 6.483-11.505 14.406-14.741 23.05-.36.72-.72 1.08-1.439 1.08-.36 0-1.078-.36-1.438-1.08-3.236-8.644-8.27-16.567-14.741-23.05-1.798-1.8-3.955-3.602-5.753-5.042.36-.36 0-.72 0-1.44zm25.168 52.222c0-15.846 5.753-30.613 17.259-41.777l1.798-1.801c.36-.36.719-.36 1.078-.36h.72c.718.36 1.078.72 1.078 1.44v2.882c0 16.207-6.831 32.053-18.697 42.858-.719.36-1.078.36-1.797.36-.72-.36-.72-.72-.72-1.44v-2.162h-.719zM80.36 80.494c.36.72 0 1.44-.36 1.801-.359.36-1.078.72-1.797.36-8.27-3.601-16.899-5.402-25.887-5.402-2.517 0-5.394 0-8.27.36-.72 0-1.079 0-1.438-.72-8.63-12.245-12.225-26.652-10.068-41.418 0-.72.72-1.08 1.438-1.44 14.023-1.801 28.045 1.44 39.91 9.003.36.36.72.72.72 1.44-.36 2.882-.36 5.403-.36 8.284-.36 9.364 2.157 19.089 6.112 27.732zm-31.28 2.161c0-.36.719-1.08 1.438-1.08h2.157c14.742 0 29.124 5.762 39.91 15.846l1.079 1.08c.36.361.719 1.081.36 1.442 0 .36-.72 1.08-1.439 1.08-16.54.36-32.36-5.762-43.505-16.927l-.36.36h.72c-.36-.36-.36-1.08-.36-1.8zm62.561 16.207 1.079-1.08c10.786-10.085 25.168-15.847 39.91-15.847h2.157c.72 0 1.079.36 1.439 1.08.36.72 0 1.08-.36 1.44-11.146 11.166-26.966 17.288-43.506 16.928-.719 0-1.078-.36-1.438-1.08 0-.36 0-1.08.72-1.44zm15.101-16.567c-.719.36-1.438 0-1.797-.36-.36-.36-.72-1.08-.36-1.8 4.315-8.645 6.472-18.009 6.472-27.733 0-2.88 0-5.402-.36-8.283 0-.72 0-1.08.72-1.44 9.707-6.123 20.854-9.725 32-9.725 2.516 0 5.033 0 7.55.36.72 0 1.079.72 1.438 1.44 1.798 14.767-1.797 29.533-10.067 41.418-.36.36-.72.72-1.438.72-2.517-.36-5.394-.36-8.27-.36-8.989.36-17.618 2.161-25.888 5.763z"/>
            </g>
            <path d="M239.968 218.765c-1.441.706-2.882 1.059-4.323 1.059-3.242 0-5.763-2.471-5.763-6 0-3.177 2.521-6 5.763-6 1.441 0 2.882.352 4.323 1.058h.72c.36 0 .36-.353.36-.706v-1.058c0-.353 0-.706-.36-.706-1.44-.706-3.242-1.412-5.043-1.412-4.683 0-8.645 3.53-8.645 8.47 0 4.589 3.602 8.471 8.645 8.471 2.522 0 3.963-.706 5.043-1.059.36 0 .36-.353.36-.706v-1.058c0-.353 0-.706-.36-.706 0 .353-.36.353-.72.353zM258.7 206.059h-1.081c-.36 0-.72.353-.72.706v9.882c0 2.118-1.081 3.53-3.603 3.53-2.522 0-3.602-1.06-3.602-3.53v-9.882c0-.353-.36-.706-.72-.706h-1.081c-.36 0-.72.353-.72.706v9.882c0 3.53 2.52 6 6.123 6 3.602 0 6.124-2.47 6.124-6v-9.882c.36-.353 0-.706-.72-.706zM271.307 212.765c-2.882-1.06-2.882-1.765-2.882-2.824 0-1.412 1.441-1.765 2.522-1.765 1.08 0 2.521.706 3.242.706h.72c.36 0 .36-.353.36-.706v-1.058c0-.353-.36-.706-.36-.706-.72-.353-2.161-.706-3.962-.706-3.242 0-5.404 1.765-5.404 4.588 0 2.47 1.441 3.882 4.683 5.294 2.882 1.06 2.882 1.765 2.882 2.824 0 1.412-1.44 1.764-2.882 1.764-1.44 0-2.881-.352-3.602-1.058h-.72c-.36 0-.36.353-.36.706v1.058c0 .353.36.706.36.706.72.353 2.16 1.06 4.322 1.06 3.242 0 5.404-1.766 5.404-4.59.72-2.47-.72-3.882-4.323-5.293zM291.84 206.059h-10.447c-.36 0-.72.353-.72.706v.706c0 .353.36.705.72.705h3.962v13.06c0 .352.36.705.72.705h1.082c.36 0 .72-.353.72-.706v-13.059h3.962c.36 0 .72-.352.72-.705v-.706c.361-.353 0-.706-.72-.706zM304.087 205.706c-4.683 0-8.285 3.53-8.285 8.47 0 4.589 3.602 8.471 8.285 8.471s8.285-3.53 8.285-8.47c0-4.942-3.602-8.471-8.285-8.471zm0 14.118c-3.242 0-5.764-2.471-5.764-6 0-3.177 2.522-6 5.764-6 3.242 0 5.763 2.47 5.763 6 0 3.529-2.521 6-5.763 6zM330.383 206.059l-5.764 8.117-5.763-8.117c-.36-.706-1.441-.353-1.441.353v14.823c0 .353.36.706.72.706h1.081c.36 0 .72-.353.72-.706v-9.176l3.963 5.647c.36.353 1.08.353 1.44 0l3.963-5.647v9.176c0 .353.36.706.72.706h1.081c.36 0 .72-.353.72-.706v-14.823c0-.353-1.08-.706-1.44-.353zM353.797 212.765c-2.882-1.06-2.882-1.765-2.882-2.824 0-1.412 1.441-1.765 2.522-1.765 1.08 0 2.521.706 3.242.706h.72c.36 0 .36-.353.36-.706v-1.058c0-.353-.36-.706-.36-.706-.72-.353-2.161-.706-3.962-.706-3.242 0-5.403 1.765-5.403 4.588 0 2.47 1.44 3.882 4.682 5.294 2.882 1.06 2.882 1.765 2.882 2.824 0 1.412-1.44 1.764-2.882 1.764-1.44 0-2.881-.352-3.602-1.058h-.72c-.36 0-.36.353-.36.706v1.058c0 .353.36.706.36.706.72.353 2.161 1.06 4.322 1.06 3.242 0 5.404-1.766 5.404-4.59.36-2.47-.72-3.882-4.323-5.293zM370.727 205.706c-4.683 0-8.285 3.53-8.285 8.47 0 4.589 3.602 8.471 8.285 8.471s8.285-3.53 8.285-8.47c0-4.942-3.602-8.471-8.285-8.471zm0 14.118c-3.242 0-5.763-2.471-5.763-6 0-3.177 2.521-6 5.763-6s5.764 2.47 5.764 6c0 3.529-2.522 6-5.764 6zM393.421 206.059h-8.285c-.36 0-.72.353-.72.706v14.47c0 .353.36.706.72.706h1.08c.36 0 .721-.353.721-.706v-6h5.403c.36 0 .72-.353.72-.706v-.705c0-.353-.36-.706-.72-.706h-5.403v-4.236h6.484c.36 0 .72-.353.72-.706v-.705c0-1.06-.36-1.412-.72-1.412zM409.27 206.059h-10.446c-.36 0-.72.353-.72.706v1.059c0 .352.36.705.72.705h3.963v13.06c0 .352.36.705.72.705h1.08c.361 0 .721-.353.721-.706V208.53h3.963c.36 0 .72-.353.72-.705v-.706c0-.706-.36-1.06-.72-1.06zM436.647 218.765c-1.44.706-2.881 1.059-4.322 1.059-3.242 0-5.764-2.471-5.764-6 0-3.177 2.522-6 5.764-6 1.44 0 2.881.352 4.322 1.058h.72c.361 0 .361-.353.361-.706v-1.058c0-.353 0-.706-.36-.706-1.441-.706-3.242-1.412-5.043-1.412-4.683 0-8.646 3.53-8.646 8.47 0 4.589 3.603 8.471 8.646 8.471 2.521 0 3.962-.706 5.043-1.059.36 0 .36-.353.36-.706v-1.058c0-.353 0-.706-.36-.706 0 .353-.36.353-.72.353zM449.975 205.706c-4.682 0-8.285 3.53-8.285 8.47 0 4.589 3.603 8.471 8.285 8.471 4.683 0 8.285-3.53 8.285-8.47 0-4.942-3.602-8.471-8.285-8.471zm0 14.118c-3.242 0-5.763-2.471-5.763-6 0-3.177 2.521-6 5.763-6s5.764 2.47 5.764 6c0 3.529-2.522 6-5.764 6zM474.83 206.059h-1.08c-.36 0-.72.353-.72.706v9.882l-8.646-10.588c-.36-.706-1.44-.353-1.44.706v14.823c0 .353.36.706.72.706h1.08c.36 0 .72-.353.72-.706v-9.882l8.646 10.588c0 .353.36.353.72.353s.721-.353.721-.706v-14.823c.36-.706 0-1.06-.72-1.06zM491.4 206.059h-10.446c-.36 0-.72.353-.72.706v1.059c0 .352.36.705.72.705h3.963v13.06c0 .352.36.705.72.705h1.08c.361 0 .721-.353.721-.706V208.53h3.963c.36 0 .72-.353.72-.705v-.706c0-.706-.36-1.06-.72-1.06zM501.847 206.412c0-.353-.36-.353-.72-.353s-.721.353-.721.353l-6.484 14.823v.706c0 .353.36.353.72.353h1.081c.36 0 .72-.353.72-.353l1.442-3.53h6.844l1.44 3.53c0 .353.36.353.721.353h1.08c.36 0 .721 0 .721-.353s.36-.706 0-.706l-6.844-14.823zm-3.242 9.53 2.161-4.942 2.162 4.941h-4.323zM523.82 219.118c-1.44.706-2.881 1.058-4.322 1.058-3.242 0-5.764-2.47-5.764-6 0-3.176 2.522-6 5.764-6 1.44 0 2.881.353 4.322 1.06h.72c.36 0 .36-.354.36-.707v-.705c0-.353 0-.706-.36-.706-1.44-.706-3.241-1.412-5.042-1.412-4.683 0-8.646 3.53-8.646 8.47 0 4.589 3.603 8.471 8.646 8.471 2.521 0 3.962-.706 5.043-1.059.36 0 .36-.353.36-.706v-1.058c0-.353 0-.706-.36-.706 0-.353-.36-.353-.72 0zM539.31 206.059h-10.447c-.36 0-.72.353-.72.706v1.059c0 .352.36.705.72.705h3.963v13.06c0 .352.36.705.72.705h1.08c.361 0 .721-.353.721-.706V208.53h3.963c.36 0 .72-.353.72-.705v-.706c.36-.706 0-1.06-.72-1.06zM563.805 219.824h-6.124v-13.06c0-.352-.36-.705-.72-.705h-1.081c-.36 0-.72.353-.72.706v14.47c0 .353.36.706.72.706h7.925c.36 0 .72-.353.72-.706v-.706s-.36-.705-.72-.705zM580.375 219.824h-7.205v-4.589h5.764c.36 0 .72-.353.72-.706v-.705c0-.353-.36-.706-.72-.706h-5.764v-4.236h6.844c.36 0 .72-.353.72-.706v-.705c0-.353-.36-.706-.72-.706h-8.645c-.36 0-.72.353-.72.706v14.47c0 .353.36.706.72.706h9.006c.36 0 .72-.353.72-.706v-.706c0-.706-.36-1.411-.72-1.411zM598.746 206.059h-1.08c-.361 0-.721.353-.721.706v9.882l-8.646-10.588c-.36-.706-1.44-.353-1.44.706v14.823c0 .353.36.706.72.706h1.08c.36 0 .721-.353.721-.706v-9.882l8.645 10.588c0 .353.36.353.72.353.361 0 .721-.353.721-.706v-14.823c0-.706-.36-1.06-.72-1.06zM610.633 213.118c-2.882-1.06-2.882-1.765-2.882-2.824 0-1.412 1.441-1.765 2.522-1.765 1.08 0 2.521.706 3.242.706h.72c.36 0 .36-.353.36-.706v-1.058c0-.353-.36-.706-.36-.706-.72-.353-2.161-.706-3.962-.706-3.242 0-5.404 1.765-5.404 4.588 0 2.47 1.441 3.882 4.683 5.294 2.882 1.059 2.882 1.765 2.882 2.824 0 1.411-1.44 1.764-2.882 1.764-1.44 0-2.881-.353-3.602-1.058h-.72c-.36 0-.36.353-.36.705v1.06c0 .352.36.705.36.705.72.353 2.161 1.059 4.322 1.059 3.242 0 5.404-1.765 5.404-4.588.36-2.47-1.081-4.236-4.323-5.294zM630.445 219.824h-7.204v-4.589h5.763c.36 0 .72-.353.72-.706v-.705c0-.353-.36-.706-.72-.706h-5.763v-4.236h6.844c.36 0 .72-.353.72-.706v-.705c0-.353-.36-.706-.72-.706h-8.645c-.36 0-.72.353-.72.706v14.47c0 .353.36.706.72.706h9.005c.36 0 .72-.353.72-.706v-.706c.36-.706 0-1.411-.72-1.411zM641.612 213.118c-2.882-1.06-2.882-1.765-2.882-2.824 0-1.412 1.44-1.765 2.522-1.765 1.08 0 2.521.706 3.242.706h.72c.36 0 .36-.353.36-.706v-1.058c0-.353-.36-.706-.36-.706-.72-.353-2.161-.706-3.962-.706-3.242 0-5.404 1.765-5.404 4.588 0 2.47 1.441 3.882 4.683 5.294 2.882 1.059 2.882 1.765 2.882 2.824 0 1.411-1.441 1.764-2.882 1.764-1.44 0-2.882-.353-3.602-1.058h-.72c-.36 0-.36.353-.36.705v1.06c0 .352.36.705.36.705.72.353 2.16 1.059 4.322 1.059 3.242 0 5.403-1.765 5.403-4.588.36-2.47-.72-4.236-4.322-5.294zM271.989 147.857c-.358-.717-.358-1.434 0-1.792.358-.717.715-1.076 1.43-1.434 12.16-4.301 18.955-14.337 18.955-27.24 0-18.28-12.517-29.391-32.902-29.391h-27.896c-2.145 0-3.576 1.434-3.576 3.584v93.907c0 1.434 1.073 2.509 2.503 2.509h5.723c1.43 0 2.503-1.075 2.503-2.509v-36.56c0-1.433 1.073-2.15 2.146-2.15h17.166c.716 0 1.43.359 2.146 1.076l21.816 38.35c.357.718 1.073 1.076 2.146 1.076h6.437c.715 0 1.788-.358 2.146-1.075.357-.717.357-1.792 0-2.51l-20.743-35.841zm-33.618-47.67c0-1.434 1.073-2.51 2.504-2.51h17.882c13.947 0 22.173 7.169 22.173 19.355 0 12.545-8.226 19.355-22.173 19.355h-17.882c-1.43 0-2.504-1.075-2.504-2.509v-33.692zM342.757 115C323.365 115 309 130.806 309 152c0 21.913 14.724 37 35.552 37 15.083 0 23.343-4.67 26.216-6.825.718-.36 1.077-1.078 1.077-2.156v-6.106c0-1.078-.359-1.796-1.436-2.156-.718-.359-1.796-.359-2.514 0-6.823 4.311-15.083 6.826-23.343 6.826-12.928 0-22.624-8.263-24.42-21.554 0-.718 0-1.796.719-2.155.718-.719 1.436-1.078 2.155-1.078h47.044c2.154 0 3.95-1.796 3.95-3.951v-1.796C374 131.883 363.227 115 342.757 115zm-20.829 25.146c3.591-9.34 11.492-14.729 20.47-14.729 7.541 0 16.878 3.952 19.751 15.088.36 1.078 0 1.796-.718 2.514-.718.719-1.437 1.078-2.514 1.078h-34.475c-1.077 0-2.155-.36-2.514-1.437-.359-.359-.359-1.437 0-2.514zM450.538 117h-4.302c-1.434 0-2.51.716-3.226 2.15l-20.076 45.492c-.359.716-1.076 1.074-1.434 1.074-.358 0-1.075-.358-1.434-1.074l-20.076-45.493c-.358-1.074-1.792-2.149-3.226-2.149h-4.302c-1.076 0-2.151.716-2.868 1.433-.717 1.074-.717 2.15-.359 3.224l29.756 65.91c.358 1.075 1.434 1.433 2.509 1.433s2.151-.716 2.51-1.433l29.755-65.91c.358-1.075.358-2.15-.359-3.224-.358-.717-1.434-1.433-2.868-1.433zM479 93c-3.85 0-7 2.8-7 7s2.8 7 7 7c3.85 0 7-2.8 7-7s-2.8-7-7-7zM481.786 116h-3.572c-1.785 0-3.214 1.442-3.214 3.244v64.512c0 1.802 1.429 3.244 3.214 3.244h3.572c1.785 0 3.214-1.442 3.214-3.244v-64.152c0-1.802-1.429-3.604-3.214-3.604zM565.5 116h-3.625c-1.45 0-2.9.723-3.625 2.168l-19.938 45.896c-.362.723-1.087 1.085-1.45 1.085-.362 0-1.087-.362-1.45-1.085l-20.3-45.896c-.724-1.445-1.812-2.168-3.624-2.168h-3.625c-1.45 0-2.537.723-3.262 1.807-.725 1.084-.725 2.53-.363 3.614l29.725 66.133c.362 1.085 1.45 1.446 2.537 1.446s2.175-.723 2.537-1.446l29.725-66.133c.362-1.084.362-2.53-.363-3.614-.362-1.084-1.45-1.807-2.9-1.807zM614.757 115C595.365 115 581 130.806 581 152c0 21.913 14.724 37 35.552 37 15.083 0 23.343-4.67 26.216-6.825.718-.36 1.077-1.078 1.077-2.156v-6.106c0-1.078-.359-1.796-1.436-2.156-.718-.359-1.796-.359-2.514 0-6.823 4.311-15.083 6.826-23.343 6.826-12.928 0-22.624-8.263-24.42-21.554 0-.718 0-1.796.719-2.155.718-.719 1.436-1.078 2.155-1.078h47.044c2.154 0 3.95-1.796 3.95-3.951v-1.796C646 131.883 635.227 115 614.757 115zm19.033 28.379c-.718.718-1.436 1.077-2.514 1.077h-34.475c-1.077 0-2.155-.359-2.514-1.437-.718-.718-.718-1.796-.359-2.873 3.591-9.34 11.492-14.729 20.47-14.729 7.541 0 16.878 3.952 19.751 15.088.36 1.078 0 1.796-.359 2.874z"/>
            <g>
                <path d="M658.75 117.023h-7.25c-.25 0-.5.26-.5.521v.52c0 .261.25.522.5.522h2.75v9.633c0 .26.25.52.5.52h.75c.25 0 .5-.26.5-.52v-9.373h2.75c.25 0 .5-.26.5-.52v-.521c0-.521-.25-.782-.5-.782zM671 117.284l-4 5.988-4-5.988c-.25-.52-1-.26-1 .26v10.935c0 .26.25.521.5.521h.75c.25 0 .5-.26.5-.52v-6.77l2.75 4.166c.25.26.75.26 1 0l2.75-4.166v6.77c0 .26.25.52.5.52h.75c.25 0 .5-.26.5-.52v-10.936c0-.52-.75-.78-1-.26z"/>
            </g>
        </g>
    </g>
</svg>
