<svg width="658" height="254" viewBox="0 0 658 254" xmlns="http://www.w3.org/2000/svg">
    <g fill="none" fill-rule="evenodd">
        <path d="M123.87 227.388c0 14.7-11.928 26.612-26.649 26.612-14.72 0-26.647-11.912-26.647-26.612 0-14.7 11.927-26.612 26.647-26.612 14.72 0 26.648 11.912 26.648 26.612" fill="#B2D9F2" fill-rule="nonzero"/>
        <path d="M123.582 227.284c0 14.596-11.85 26.403-26.439 26.403-14.59 0-26.439-11.833-26.439-26.403 0-14.57 11.85-26.404 26.44-26.404 14.589 0 26.438 11.834 26.438 26.404" fill="#B3D9F2" fill-rule="nonzero"/>
        <path d="M123.295 227.153c0 14.492-11.745 26.221-26.256 26.221-14.512 0-26.257-11.729-26.257-26.22 0-14.493 11.745-26.222 26.257-26.222 14.511 0 26.256 11.73 26.256 26.221" fill="#B3DAF2" fill-rule="nonzero"/>
        <path d="M123.008 227.05c0 14.36-11.667 26.012-26.048 26.012-14.38 0-26.047-11.651-26.047-26.013 0-14.361 11.667-26.012 26.047-26.012 14.381 0 26.048 11.65 26.048 26.012" fill="#B4DAF2" fill-rule="nonzero"/>
        <path d="M122.72 226.945c0 14.257-11.587 25.83-25.864 25.83-14.276 0-25.865-11.573-25.865-25.83 0-14.257 11.589-25.83 25.865-25.83 14.277 0 25.865 11.573 25.865 25.83" fill="#B5DAF2" fill-rule="nonzero"/>
        <path d="M122.434 226.84c0 14.154-11.484 25.648-25.656 25.648-14.172 0-25.656-11.468-25.656-25.647 0-14.18 11.484-25.622 25.656-25.622 14.172 0 25.656 11.469 25.656 25.622" fill="#B6DBF3" fill-rule="nonzero"/>
        <path d="M122.147 226.736c0 14.05-11.406 25.44-25.474 25.44-14.067 0-25.473-11.39-25.473-25.44 0-14.048 11.406-25.439 25.473-25.439 14.068 0 25.474 11.39 25.474 25.44" fill="#B7DBF3" fill-rule="nonzero"/>
        <path d="M121.86 226.632c0 13.945-11.328 25.23-25.265 25.23-13.937 0-25.29-11.311-25.29-25.23 0-13.918 11.327-25.257 25.29-25.257s25.265 11.313 25.265 25.257" fill="#B8DBF3" fill-rule="nonzero"/>
        <path d="M121.572 226.528c0 13.84-11.222 25.048-25.081 25.048-13.86 0-25.082-11.208-25.082-25.048 0-13.84 11.223-25.048 25.082-25.048s25.081 11.208 25.081 25.048" fill="#B8DCF3" fill-rule="nonzero"/>
        <path d="M121.285 226.424c0 13.736-11.144 24.865-24.899 24.865-13.754 0-24.899-11.13-24.899-24.865 0-13.736 11.145-24.866 24.9-24.866 13.754 0 24.898 11.13 24.898 24.866" fill="#B9DCF3" fill-rule="nonzero"/>
        <path d="M120.998 226.293c0 13.606-11.066 24.657-24.69 24.657s-24.69-11.051-24.69-24.657c0-13.605 11.066-24.657 24.69-24.657s24.69 11.025 24.69 24.657" fill="#BADDF3" fill-rule="nonzero"/>
        <path d="M120.711 226.189c0 13.502-10.962 24.475-24.507 24.475-13.546 0-24.508-10.947-24.508-24.475 0-13.528 10.962-24.475 24.508-24.475 13.545 0 24.507 10.947 24.507 24.475" fill="#BBDDF3" fill-rule="nonzero"/>
        <path d="M120.424 226.085c0 13.397-10.883 24.266-24.299 24.266-13.415 0-24.299-10.869-24.299-24.266 0-13.397 10.884-24.266 24.3-24.266 13.415 0 24.298 10.869 24.298 24.266" fill="#BCDDF3" fill-rule="nonzero"/>
        <path d="M120.11 225.98c0 13.293-10.778 24.084-24.115 24.084-13.337 0-24.116-10.79-24.116-24.083s10.805-24.084 24.116-24.084c13.31 0 24.116 10.764 24.116 24.084" fill="#BDDEF4" fill-rule="nonzero"/>
        <path d="M119.824 225.876c0 13.189-10.701 23.875-23.908 23.875-13.206 0-23.907-10.686-23.907-23.875 0-13.188 10.701-23.875 23.907-23.875 13.207 0 23.908 10.687 23.908 23.875" fill="#BDDEF4" fill-rule="nonzero"/>
        <path d="M119.537 225.772c0 13.084-10.623 23.693-23.725 23.693-13.102 0-23.725-10.609-23.725-23.693 0-13.084 10.623-23.693 23.725-23.693 13.102 0 23.725 10.609 23.725 23.693" fill="#BEDEF4" fill-rule="nonzero"/>
        <path d="M119.25 225.668c0 12.98-10.519 23.484-23.516 23.484-12.998 0-23.516-10.504-23.516-23.484 0-12.98 10.518-23.485 23.516-23.485 12.997 0 23.516 10.53 23.516 23.485" fill="#BFDFF4" fill-rule="nonzero"/>
        <path d="M118.963 225.537c0 12.876-10.44 23.302-23.334 23.302-12.893 0-23.333-10.426-23.333-23.302s10.44-23.301 23.333-23.301c12.894 0 23.334 10.425 23.334 23.301" fill="#C0DFF4" fill-rule="nonzero"/>
        <path d="M118.675 225.433c0 12.746-10.361 23.093-23.124 23.093-12.763 0-23.124-10.347-23.124-23.093 0-12.745 10.361-23.093 23.124-23.093 12.763 0 23.124 10.348 23.124 23.093" fill="#C1DFF4" fill-rule="nonzero"/>
        <path d="M118.388 225.329c0 12.641-10.283 22.91-22.941 22.91-12.659 0-22.942-10.243-22.942-22.91 0-12.668 10.257-22.91 22.942-22.91 12.684 0 22.941 10.242 22.941 22.91" fill="#C2E0F4" fill-rule="nonzero"/>
        <path d="M118.101 225.225c0 12.537-10.179 22.702-22.733 22.702s-22.732-10.165-22.732-22.702c0-12.537 10.178-22.703 22.732-22.703 12.554 0 22.733 10.166 22.733 22.703" fill="#C2E0F4" fill-rule="nonzero"/>
        <path d="M117.814 225.12c0 12.433-10.1 22.52-22.55 22.52-12.45 0-22.55-10.087-22.55-22.52 0-12.432 10.1-22.52 22.55-22.52 12.45 0 22.55 10.088 22.55 22.52" fill="#C3E1F5" fill-rule="nonzero"/>
        <path d="M117.527 225.016c0 12.329-9.996 22.338-22.341 22.338s-22.368-9.983-22.368-22.338 10.023-22.311 22.368-22.311c12.345 0 22.341 9.983 22.341 22.311" fill="#C4E1F5" fill-rule="nonzero"/>
        <path d="M117.24 224.912c0 12.224-9.918 22.129-22.159 22.129-12.24 0-22.158-9.905-22.158-22.13 0-12.223 9.918-22.128 22.158-22.128 12.241 0 22.159 9.905 22.159 22.129" fill="#C4E1F5" fill-rule="nonzero"/>
        <path d="M116.953 224.808c0 12.12-9.84 21.946-21.95 21.946s-21.976-9.826-21.976-21.946c0-12.12 9.84-21.947 21.976-21.947s21.95 9.827 21.95 21.947" fill="#C5E1F5" fill-rule="nonzero"/>
        <path d="M116.666 224.677c0 12.016-9.735 21.738-21.767 21.738s-21.768-9.722-21.768-21.738S82.867 202.94 94.9 202.94s21.767 9.722 21.767 21.738" fill="#C6E2F5" fill-rule="nonzero"/>
        <path d="M116.379 224.573c0 11.912-9.657 21.555-21.585 21.555-11.927 0-21.584-9.643-21.584-21.555 0-11.912 9.657-21.555 21.584-21.555 11.928 0 21.585 9.643 21.585 21.555" fill="#C7E2F5" fill-rule="nonzero"/>
        <path d="M116.092 224.469c0 11.781-9.579 21.347-21.376 21.347S73.34 236.25 73.34 224.469s9.579-21.347 21.376-21.347 21.376 9.566 21.376 21.347" fill="#C8E3F5" fill-rule="nonzero"/>
        <path d="M115.804 224.364c0 11.677-9.474 21.139-21.193 21.139-11.718 0-21.192-9.462-21.192-21.139 0-11.676 9.474-21.164 21.192-21.164 11.72 0 21.193 9.461 21.193 21.164" fill="#C9E3F5" fill-rule="nonzero"/>
        <path d="M115.517 224.26c0 11.573-9.396 20.956-20.984 20.956-11.588 0-20.984-9.383-20.984-20.956 0-11.572 9.396-20.956 20.984-20.956 11.588 0 20.984 9.384 20.984 20.956" fill="#CAE4F6" fill-rule="nonzero"/>
        <path d="M115.204 224.156c0 11.468-9.317 20.774-20.801 20.774-11.484 0-20.802-9.306-20.802-20.774 0-11.468 9.318-20.774 20.802-20.774s20.801 9.306 20.801 20.774" fill="#CBE4F6" fill-rule="nonzero"/>
        <path d="M114.917 224.052c0 11.364-9.213 20.565-20.593 20.565s-20.592-9.201-20.592-20.565 9.213-20.565 20.592-20.565c11.38 0 20.593 9.2 20.593 20.565" fill="#CCE4F6" fill-rule="nonzero"/>
        <path d="M114.63 223.921c0 11.26-9.135 20.383-20.41 20.383s-20.41-9.123-20.41-20.383 9.135-20.382 20.41-20.382 20.41 9.122 20.41 20.382" fill="#CCE4F6" fill-rule="nonzero"/>
        <path d="M114.343 223.817c0 11.156-9.057 20.174-20.201 20.174-11.145 0-20.201-9.044-20.201-20.174 0-11.13 9.056-20.174 20.2-20.174 11.145 0 20.202 9.045 20.202 20.174" fill="#CCE5F6" fill-rule="nonzero"/>
        <path d="M114.056 223.713c0 11.051-8.952 19.991-20.019 19.991-11.066 0-20.018-8.94-20.018-19.991 0-11.052 8.952-19.992 20.018-19.992 11.067 0 20.019 8.94 20.019 19.992" fill="#CDE5F6" fill-rule="nonzero"/>
        <path d="M113.769 223.609c0 10.92-8.874 19.783-19.81 19.783-10.936 0-19.81-8.862-19.81-19.783 0-10.921 8.874-19.783 19.81-19.783 10.936 0 19.81 8.862 19.81 19.783" fill="#CEE6F6" fill-rule="nonzero"/>
        <path d="M113.482 223.504c0 10.817-8.796 19.601-19.627 19.601-10.832 0-19.627-8.784-19.627-19.6 0-10.817 8.795-19.601 19.627-19.601 10.831 0 19.627 8.784 19.627 19.6" fill="#CFE6F6" fill-rule="nonzero"/>
        <path d="M113.194 223.4c0 10.713-8.69 19.392-19.418 19.392-10.727 0-19.418-8.68-19.418-19.392s8.691-19.392 19.418-19.392c10.727 0 19.418 8.68 19.418 19.392" fill="#D0E6F7" fill-rule="nonzero"/>
        <path d="M112.907 223.296c0 10.608-8.613 19.21-19.235 19.21-10.623 0-19.236-8.602-19.236-19.21s8.613-19.21 19.236-19.21c10.622 0 19.235 8.602 19.235 19.21" fill="#D0E7F7" fill-rule="nonzero"/>
        <path d="M112.62 223.192c0 10.504-8.534 19-19.026 19-10.492 0-19.027-8.522-19.027-19s8.535-19.002 19.027-19.002 19.026 8.524 19.026 19.002" fill="#D2E8F7" fill-rule="nonzero"/>
        <path d="M112.333 223.061c0 10.4-8.43 18.819-18.844 18.819-10.414 0-18.844-8.419-18.844-18.819 0-10.4 8.43-18.818 18.844-18.818 10.414 0 18.844 8.418 18.844 18.818" fill="#D3E8F7" fill-rule="nonzero"/>
        <path d="M112.046 222.957c0 10.296-8.352 18.636-18.635 18.636-10.283 0-18.635-8.34-18.635-18.636s8.352-18.61 18.635-18.61c10.283 0 18.635 8.34 18.635 18.61" fill="#D3E8F7" fill-rule="nonzero"/>
        <path d="M111.759 222.853c0 10.165-8.274 18.427-18.453 18.427-10.178 0-18.452-8.262-18.452-18.427s8.248-18.428 18.452-18.428c10.205 0 18.453 8.263 18.453 18.428" fill="#D4E8F7" fill-rule="nonzero"/>
        <path d="M111.472 222.748c0 10.061-8.17 18.22-18.244 18.22s-18.244-8.159-18.244-18.22c0-10.06 8.17-18.219 18.244-18.219 10.075 0 18.244 8.159 18.244 18.22" fill="#D5E9F7" fill-rule="nonzero"/>
        <path d="M111.185 222.644c0 9.957-8.091 18.037-18.061 18.037s-18.061-8.08-18.061-18.037c0-9.956 8.09-18.037 18.06-18.037 9.97 0 18.062 8.08 18.062 18.037" fill="#D5E9F7" fill-rule="nonzero"/>
        <path d="M110.898 222.54c0 9.852-7.987 17.854-17.879 17.854-9.891 0-17.852-8.002-17.852-17.854 0-9.852 7.987-17.854 17.852-17.854 9.866 0 17.879 7.975 17.879 17.854" fill="#D6EAF8" fill-rule="nonzero"/>
        <path d="M110.585 222.436c0 9.748-7.909 17.645-17.67 17.645-9.761 0-17.67-7.897-17.67-17.645s7.909-17.646 17.67-17.646c9.761 0 17.67 7.898 17.67 17.646" fill="#D7EAF8" fill-rule="nonzero"/>
        <path d="M110.297 222.305c0 9.644-7.83 17.464-17.486 17.464-9.657 0-17.487-7.82-17.487-17.464 0-9.644 7.83-17.463 17.487-17.463 9.656 0 17.486 7.82 17.486 17.463" fill="#D8EAF8" fill-rule="nonzero"/>
        <path d="M110.01 222.201c0 9.54-7.725 17.255-17.278 17.255-9.552 0-17.278-7.741-17.278-17.255 0-9.513 7.726-17.255 17.278-17.255 9.553 0 17.278 7.742 17.278 17.255" fill="#D9EBF8" fill-rule="nonzero"/>
        <path d="M109.723 222.097c0 9.435-7.647 17.072-17.095 17.072-9.448 0-17.095-7.637-17.095-17.072 0-9.436 7.647-17.072 17.095-17.072 9.448 0 17.095 7.636 17.095 17.072" fill="#DAEBF8" fill-rule="nonzero"/>
        <path d="M109.436 221.993c0 9.305-7.569 16.863-16.886 16.863-9.318 0-16.887-7.558-16.887-16.863s7.569-16.864 16.887-16.864c9.317 0 16.886 7.559 16.886 16.864" fill="#DAECF8" fill-rule="nonzero"/>
        <path d="M109.149 221.888c0 9.201-7.464 16.682-16.704 16.682s-16.704-7.455-16.704-16.682c0-9.227 7.465-16.681 16.704-16.681 9.24 0 16.704 7.454 16.704 16.681" fill="#DBECF8" fill-rule="nonzero"/>
        <path d="M108.862 221.784c0 9.097-7.386 16.473-16.495 16.473-9.109 0-16.495-7.376-16.495-16.473 0-9.096 7.386-16.473 16.495-16.473 9.109 0 16.495 7.377 16.495 16.473" fill="#DCECF9" fill-rule="nonzero"/>
        <path d="M108.575 221.68c0 8.992-7.308 16.29-16.312 16.29-9.005 0-16.313-7.298-16.313-16.29 0-8.992 7.308-16.29 16.313-16.29 9.004 0 16.312 7.298 16.312 16.29" fill="#DDEDF9" fill-rule="nonzero"/>
        <path d="M108.288 221.55c0 8.888-7.204 16.081-16.104 16.081-8.9 0-16.103-7.193-16.103-16.081 0-8.889 7.203-16.082 16.103-16.082 8.9 0 16.104 7.193 16.104 16.082" fill="#DEEDF9" fill-rule="nonzero"/>
        <path d="M108 221.445c0 8.784-7.125 15.9-15.92 15.9-8.796 0-15.921-7.116-15.921-15.9s7.125-15.9 15.92-15.9c8.796 0 15.922 7.116 15.922 15.9" fill="#DFEEF9" fill-rule="nonzero"/>
        <path d="M107.714 221.341c0 8.68-7.047 15.69-15.712 15.69-8.666 0-15.713-7.037-15.713-15.69 0-8.653 7.047-15.69 15.713-15.69 8.665 0 15.712 7.037 15.712 15.69" fill="#DFEEF9" fill-rule="nonzero"/>
        <path d="M107.426 221.237c0 8.575-6.942 15.508-15.529 15.508s-15.53-6.933-15.53-15.508c0-8.576 6.943-15.509 15.53-15.509s15.53 6.933 15.53 15.509" fill="#E0EEF9" fill-rule="nonzero"/>
        <path d="M107.14 221.132c0 8.471-6.865 15.3-15.321 15.3s-15.32-6.855-15.32-15.3c0-8.444 6.864-15.3 15.32-15.3s15.32 6.856 15.32 15.3" fill="#E1EFF9" fill-rule="nonzero"/>
        <path d="M106.852 221.028c0 8.34-6.786 15.118-15.138 15.118-8.351 0-15.137-6.777-15.137-15.118 0-8.34 6.786-15.117 15.137-15.117 8.352 0 15.138 6.777 15.138 15.117" fill="#E2EFFA" fill-rule="nonzero"/>
        <path d="M106.565 220.924c0 8.236-6.681 14.909-14.955 14.909-8.274 0-14.929-6.673-14.929-14.909s6.682-14.935 14.929-14.935c8.248 0 14.955 6.672 14.955 14.935" fill="#E3F0FA" fill-rule="nonzero"/>
        <path d="M106.278 220.82c0 8.132-6.603 14.726-14.746 14.726s-14.747-6.594-14.747-14.726c0-8.132 6.604-14.727 14.747-14.727s14.746 6.595 14.746 14.727" fill="#E4F0FA" fill-rule="nonzero"/>
        <path d="M105.991 220.69c0 8.027-6.525 14.543-14.564 14.543-8.038 0-14.563-6.516-14.563-14.544s6.525-14.544 14.563-14.544c8.039 0 14.564 6.516 14.564 14.544" fill="#E5F1FA" fill-rule="nonzero"/>
        <path d="M105.678 220.585c0 7.924-6.42 14.336-14.355 14.336-7.934 0-14.355-6.412-14.355-14.336s6.42-14.335 14.355-14.335c7.934 0 14.355 6.411 14.355 14.335" fill="#E5F1FA" fill-rule="nonzero"/>
        <path d="M105.39 220.48c0 7.82-6.342 14.154-14.145 14.154-7.804 0-14.173-6.334-14.173-14.153 0-7.82 6.343-14.153 14.173-14.153s14.146 6.333 14.146 14.153" fill="#E6F1FA" fill-rule="nonzero"/>
        <path d="M105.104 220.377c0 7.689-6.264 13.944-13.964 13.944s-13.963-6.255-13.963-13.944c0-7.69 6.264-13.945 13.963-13.945 7.7 0 13.964 6.256 13.964 13.945" fill="#E7F2FA" fill-rule="nonzero"/>
        <path d="M104.816 220.272c0 7.585-6.16 13.762-13.78 13.762-7.621 0-13.78-6.15-13.78-13.762 0-7.61 6.159-13.762 13.78-13.762 7.62 0 13.78 6.151 13.78 13.762" fill="#E8F2FB" fill-rule="nonzero"/>
        <path d="M104.53 220.168c0 7.48-6.082 13.554-13.572 13.554-7.491 0-13.572-6.073-13.572-13.554 0-7.48 6.08-13.554 13.572-13.554 7.49 0 13.571 6.074 13.571 13.554" fill="#E9F3FB" fill-rule="nonzero"/>
        <path d="M104.242 220.064c0 7.376-5.977 13.371-13.389 13.371-7.412 0-13.389-5.969-13.389-13.371 0-7.403 6.003-13.371 13.39-13.371 7.385 0 13.388 5.995 13.388 13.37" fill="#E9F3FB" fill-rule="nonzero"/>
        <path d="M103.955 219.934c0 7.272-5.898 13.162-13.18 13.162s-13.18-5.89-13.18-13.162c0-7.273 5.898-13.163 13.18-13.163s13.18 5.89 13.18 13.163" fill="#EAF4FB" fill-rule="nonzero"/>
        <path d="M103.668 219.83c0 7.167-5.82 12.98-12.998 12.98-7.177 0-12.997-5.813-12.997-12.98 0-7.169 5.82-12.98 12.997-12.98 7.178 0 12.998 5.811 12.998 12.98" fill="#EBF4FB" fill-rule="nonzero"/>
        <path d="M103.381 219.725c0 7.064-5.716 12.772-12.789 12.772-7.073 0-12.789-5.708-12.789-12.772s5.742-12.772 12.79-12.772c7.046 0 12.788 5.735 12.788 12.772" fill="#ECF5FB" fill-rule="nonzero"/>
        <path d="M103.094 219.62c0 6.96-5.638 12.59-12.606 12.59-6.969 0-12.606-5.63-12.606-12.59 0-6.959 5.637-12.588 12.606-12.588 6.968 0 12.606 5.63 12.606 12.589" fill="#EDF5FC" fill-rule="nonzero"/>
        <path d="M102.807 219.516c0 6.83-5.56 12.381-12.398 12.381s-12.397-5.552-12.397-12.38c0-6.83 5.56-12.381 12.397-12.381 6.839 0 12.398 5.552 12.398 12.38" fill="#EEF5FC" fill-rule="nonzero"/>
        <path d="M102.52 219.412c0 6.725-5.455 12.198-12.215 12.198s-12.215-5.447-12.215-12.198c0-6.75 5.455-12.198 12.215-12.198s12.215 5.447 12.215 12.198" fill="#EEF6FC" fill-rule="nonzero"/>
        <path d="M102.233 219.308c0 6.62-5.377 11.99-12.006 11.99-6.63 0-12.006-5.37-12.006-11.99s5.376-11.99 12.006-11.99 12.006 5.37 12.006 11.99" fill="#EFF6FC" fill-rule="nonzero"/>
        <path d="M101.945 219.204c0 6.516-5.298 11.807-11.823 11.807S78.3 225.72 78.3 219.204s5.298-11.808 11.823-11.808 11.823 5.292 11.823 11.808" fill="#F0F7FC" fill-rule="nonzero"/>
        <path d="M101.658 219.073c0 6.412-5.193 11.6-11.614 11.6-6.42 0-11.614-5.188-11.614-11.6s5.193-11.598 11.614-11.598c6.42 0 11.614 5.186 11.614 11.598" fill="#F1F7FC" fill-rule="nonzero"/>
        <path d="M101.371 218.97c0 6.307-5.115 11.415-11.431 11.415-6.317 0-11.432-5.108-11.432-11.416 0-6.308 5.115-11.416 11.432-11.416 6.316 0 11.431 5.108 11.431 11.416" fill="#F2F8FD" fill-rule="nonzero"/>
        <path d="M101.058 218.865c0 6.203-5.037 11.208-11.223 11.208-6.185 0-11.223-5.03-11.223-11.208 0-6.177 5.038-11.208 11.223-11.208 6.186 0 11.223 5.03 11.223 11.208" fill="#F3F8FD" fill-rule="nonzero"/>
        <path d="M100.771 218.76c0 6.1-4.933 11.026-11.04 11.026-6.108 0-11.04-4.926-11.04-11.025 0-6.1 4.932-11.026 11.04-11.026 6.107 0 11.04 4.926 11.04 11.026" fill="#F4F9FD" fill-rule="nonzero"/>
        <path d="M100.484 218.656c0 5.995-4.855 10.843-10.858 10.843s-10.831-4.848-10.831-10.843 4.855-10.816 10.831-10.816c5.977 0 10.858 4.848 10.858 10.816" fill="#F4F9FD" fill-rule="nonzero"/>
        <path d="M100.197 218.552c0 5.865-4.776 10.634-10.649 10.634-5.872 0-10.649-4.77-10.649-10.634 0-5.864 4.777-10.634 10.65-10.634 5.872 0 10.648 4.77 10.648 10.634" fill="#F5FAFD" fill-rule="nonzero"/>
        <path d="M99.91 218.448c0 5.76-4.672 10.452-10.466 10.452a10.441 10.441 0 0 1-10.466-10.452 10.441 10.441 0 0 1 10.466-10.452 10.441 10.441 0 0 1 10.466 10.452" fill="#F6FAFE" fill-rule="nonzero"/>
        <path d="M99.623 218.344c0 5.656-4.594 10.243-10.258 10.243-5.663 0-10.257-4.587-10.257-10.243 0-5.656 4.594-10.244 10.257-10.244 5.664 0 10.258 4.588 10.258 10.244" fill="#F7FBFE" fill-rule="nonzero"/>
        <path d="M99.336 218.213c0 5.552-4.516 10.061-10.075 10.061-5.56 0-10.074-4.509-10.074-10.06 0-5.553 4.515-10.062 10.074-10.062 5.56 0 10.075 4.51 10.075 10.061" fill="#F8FCFE" fill-rule="nonzero"/>
        <path d="M99.048 218.109c0 5.447-4.41 9.852-9.865 9.852s-9.866-4.405-9.866-9.852c0-5.448 4.41-9.852 9.866-9.852 5.455 0 9.865 4.404 9.865 9.852" fill="#F9FCFE" fill-rule="nonzero"/>
        <path d="M98.761 218.005c0 5.343-4.332 9.67-9.683 9.67-5.35 0-9.683-4.327-9.683-9.67 0-5.344 4.333-9.67 9.683-9.67s9.683 4.326 9.683 9.67" fill="#FBFDFE" fill-rule="nonzero"/>
        <path d="M98.474 217.9c0 5.24-4.254 9.462-9.474 9.462-5.22 0-9.474-4.249-9.474-9.462 0-5.212 4.254-9.461 9.474-9.461 5.22 0 9.474 4.249 9.474 9.461" fill="#FCFDFF" fill-rule="nonzero"/>
        <path d="M98.187 217.796c0 5.109-4.15 9.28-9.291 9.28a9.272 9.272 0 0 1-9.292-9.28 9.272 9.272 0 0 1 9.292-9.279 9.272 9.272 0 0 1 9.291 9.28" fill="#FDFEFF" fill-rule="nonzero"/>
        <path d="M97.9 217.692c0 5.004-4.072 9.07-9.083 9.07-5.01 0-9.082-4.066-9.082-9.07 0-5.004 4.071-9.07 9.082-9.07 5.011 0 9.083 4.066 9.083 9.07" fill="#FFF" fill-rule="nonzero"/>
        <path d="M83.075 242.323c-9.004-9.54-8.56-24.553.992-33.52a26.047 26.047 0 0 1 3.732-2.892 23.324 23.324 0 0 0-6.446 4.326c-9.553 8.993-9.996 24.006-.992 33.546 7.908 8.366 20.436 9.722 29.832 3.883-9.004 4.092-19.966 2.268-27.118-5.317" fill="#FFF" fill-rule="nonzero"/>
        <path d="M116.796 204.477c-7.125-10.27-19.496-21.712-19.496-21.712l-14.72 19.497 14.485-12.798s7.96 7.585 14.094 14.648c13.52 15.587 5.716 33.154.6 37.716-2.923 2.606-4.437 3.414-5.507 3.883 10.283-2.163 16.86-13.188 16.547-24.813-.156-6.021-3.262-12.511-5.977-16.42" fill="#00A8E0" fill-rule="nonzero"/>
        <path d="m163.724 205.676.104 15.43c0 .417-.261.652-.705.652h-3.001c-.47 0-.757-.208-.757-.652l.104-15.43v-7.22c0-.521-.704-.6-.913-.104l-11.38 22.103c-.208.417-.704.417-.913 0l-10.701-22.207c-.157-.365-.653-.157-.653.156l.6 22.702c0 .417-.208.652-.704.652h-2.453c-.47 0-.705-.208-.705-.652l.6-22.363-.104-8.393c0-.417.209-.625.705-.625h3.053c.313 0 .705.156.862.417l10.361 22.624a.57.57 0 0 0 1.018 0l10.962-22.207c.26-.47.47-.86 1.07-.86h2.897c.6 0 .757.364.757.808l-.104 15.17zM177.922 200.932c-4.855 0-6.003 4.848-6.003 8.862s1.018 10.687 6.316 10.687c4.855 0 5.925-5.396 5.925-9.227 0-4.118-.966-10.296-6.264-10.296m.156 21.452c-5.768 0-10.31-4.744-10.31-11.912 0-7.168 4.542-11.807 10.31-11.807 5.768 0 10.31 4.64 10.31 11.807 0 7.168-4.594 11.912-10.31 11.912M199.35 221.758h-.966c-3.263 0-5.298-1.381-5.298-6.151v-15.639c0-.417.209-.652.704-.652h2.454c.47 0 .704.209.704.652v17.046c0 2.138 1.123 3.154 2.402 3.154.313 0 .417 0 .417.365v.808c0 .365-.052.443-.417.443m-4.75-28.41c-1.227 0-2.245-.86-2.245-2.086 0-1.616 1.488-2.893 3.054-2.893 1.226 0 2.244.86 2.244 2.085 0 1.59-1.488 2.894-3.053 2.894M211.956 222.462c-4.49 0-6.786-.965-8.274-1.668-.26-.105-.313-.417-.26-.652l.86-2.841c.105-.365.6-.365.862-.104 1.983 2.241 4.437 3.206 6.786 3.206 2.14 0 5.298-1.225 5.298-3.78 0-2.84-3.315-3.805-6.682-4.926-3.366-1.173-6.785-2.737-6.785-6.464 0-4.118 2.897-6.36 6.89-6.36 4.437 0 6.838.756 8.352 1.017.313.052.417.26.365.547l-.809 2.71c-.157.47-.548.47-.861.21-2.036-1.643-4.28-2.399-6.995-2.399-1.931 0-3.889.86-3.889 2.946 0 4.952 13.86 3.518 13.86 11.703 0 5.03-4.229 6.829-8.666 6.829M237.481 202.053l-6.786-.104v15.065c0 2.138 1.123 3.154 2.402 3.154h1.33c.314 0 .418 0 .418.365v.808c0 .365-.052.417-.417.417h-2.297c-3.263 0-5.298-1.381-5.298-6.151v-13.658h-4.698c-.261 0-.548-.209-.548-.47 0-.26-.053-1.276 0-1.59.052-.26.208-.52.548-.52h4.698v-4.979c0-.156 0-.313.156-.365l2.845-1.225c.574-.26.914-.26.914.365v6.203h6.733c.261 0 .522.053.522.365v1.877c0 .313-.26.47-.522.47M257.996 221.55l-2.245-2.346c-.156-.209-.417-.365-.652-.052-1.88 2.345-4.646 3.05-6.682 3.05-4.437 0-7.543-2.998-7.543-8.498v-13.71c0-.417.21-.652.705-.652h2.401c.47 0 .757.209.757.652v14.57c0 3.102 1.88 4.796 4.959 4.796 2.036 0 5.716-1.564 5.716-4.066v-15.326c0-.417.26-.652.757-.652h2.4c.549 0 .758.209.758.652v21.19c0 .965-1.018.756-1.331.365M279.293 202.496c-.052.417-.365.652-.757.47-.913-.418-1.879-.86-3.732-.86-2.036 0-3.915 1.12-4.75 3.205v15.821c0 .418-.261.652-.757.652h-2.401c-.47 0-.705-.208-.705-.652v-21.138c0-.417.209-.652.705-.652h1.383c.47 0 .705.261.861.652l.81 1.877c.104.208.26.312.547.104 1.984-1.929 3.733-2.607 5.769-2.607h2.505c.418 0 .81.105.757.522l-.209 2.606h-.026zM290.96 200.828c-3.054 0-5.194 2.554-5.716 6.777-.052.6.209.964.809.964 0 0 3.576.052 5.403.052 1.33 0 1.93 0 2.818-.26 1.018-.26 1.331-.704 1.331-1.773 0-4.066-2.244-5.76-4.645-5.76m8.56 8.914c-.26.417-.652.704-.965.704H286.21c-.575 0-1.123.47-1.123 1.069.313 6.255 3.785 8.158 6.734 8.158 2.349 0 4.646-1.642 5.611-3.206.105-.156.314-.313.47-.209l1.018.86c.157.105.157.261.052.418-1.383 2.71-4.541 4.587-8.169 4.587-4.854 0-9.892-3.154-9.892-11.703 0-6.985 4.646-11.416 10.049-11.416 4.176 0 8.821 2.658 8.821 9.826 0 .26-.104.652-.26.912M316.041 222.41c-4.958 0-7.908-1.121-10.544-2.19-.365-.156-.417-.6-.313-.912l.913-3.31c.105-.417.6-.417.914-.052 2.192 2.293 5.403 3.961 9.474 3.961 3.68 0 6.786-2.345 6.786-5.447 0-8.445-17.956-6.412-17.956-17.02 0-5.396 3.862-8.497 9.187-8.497 4.802 0 8.064.808 10.544.964.365 0 .47.365.365.704l-.626 3.258c-.052.365-.496.469-.861.26-2.193-1.277-5.09-2.71-9.527-2.71-3.001 0-5.194 1.59-5.194 4.118 0 8.601 18.01 5.812 18.01 17.828 0 6.569-5.195 9.07-11.172 9.07M341.045 200.828c-3.054 0-5.194 2.554-5.716 6.777-.052.6.209.964.81.964 0 0 3.575.052 5.402.052 1.331 0 1.931 0 2.845-.26 1.018-.26 1.33-.704 1.33-1.773 0-4.066-2.244-5.76-4.645-5.76m8.56 8.914c-.26.417-.652.704-.965.704h-12.345c-.574 0-1.122.47-1.122 1.069.313 6.255 3.784 8.158 6.733 8.158 2.35 0 4.646-1.642 5.612-3.206.104-.156.313-.313.47-.209l1.018.86c.156.105.156.261.052.418-1.384 2.71-4.542 4.587-8.17 4.587-4.854 0-9.891-3.154-9.891-11.703 0-6.985 4.645-11.416 10.048-11.416 4.176 0 8.822 2.658 8.822 9.826 0 .26-.105.652-.261.912M365.944 210.915c0-.313-.156-.469-.47-.469-.104 0-6.472 1.929-6.994 2.085-1.645.548-2.715 1.59-2.715 3.102 0 2.789 1.175 4.691 4.28 4.691 3.315 0 5.925-1.694 5.925-4.066v-5.343h-.026zm2.35 10.478-1.019-1.069c-.417-.469-1.226-.417-1.775-.052-1.93 1.278-4.28 2.086-6.838 2.086-3.758 0-6.681-2.034-6.681-5.813 0-1.98 1.018-4.275 3.68-5.447 1.983-.86 5.011-1.225 7.543-1.981 1.54-.47 2.714-1.121 2.714-2.737v-1.069c0-2.893-1.54-3.962-3.262-3.962-2.245 0-4.985.6-6.995 1.486-.366.156-.705-.052-.757-.47l-.261-2.501c-.052-.417.313-.522.757-.522h7.751c3.968 0 6.63 2.45 6.63 7.742v14.153c0 .964-1.122.521-1.488.156M382.465 221.758h-.965c-3.263 0-5.299-1.381-5.299-6.151V188.76c0-.417.21-.651.705-.651h2.453c.47 0 .705.208.705.651v28.254c0 2.138 1.122 3.154 2.401 3.154.313 0 .418 0 .418.365v.808c0 .365-.052.443-.418.443M179.488 246.806h-1.906v-14.961h-5.611v-1.746h13.128v1.746h-5.611zM200.733 231.819h-10.205v5.708h9.135v1.72h-9.135v5.839h10.335v1.72H188.65V230.1h12.084zM212.295 247.093c-4.828 0-8.378-3.806-8.378-8.601 0-4.796 3.524-8.654 8.456-8.654 3.028 0 4.855 1.069 6.525 2.659l-1.279 1.381c-1.409-1.33-2.975-2.294-5.246-2.294-3.706 0-6.472 2.972-6.472 6.881 0 3.91 2.792 6.934 6.472 6.934 2.297 0 3.811-.887 5.403-2.398l1.253 1.225c-1.749 1.772-3.654 2.945-6.682 2.945M224.17 239.273v7.533h-1.879V230.1h1.88v7.428h9.656V230.1h1.88v16.707h-1.88v-7.533zM252.75 230.099h1.853v16.707h-1.514l-10.805-13.71v13.71h-1.827V230.1h1.774l10.519 13.397zM267.105 231.558c-3.811 0-6.552 3.05-6.552 6.881 0 3.832 2.767 6.934 6.604 6.934 3.836 0 6.55-3.05 6.55-6.881 0-3.832-2.766-6.908-6.602-6.908m0 15.535c-5.09 0-8.509-3.988-8.509-8.601 0-4.614 3.471-8.654 8.56-8.654 5.09 0 8.51 3.988 8.51 8.628 0 4.639-3.472 8.653-8.561 8.653M279.632 230.099h1.906v14.96h9.396v1.747h-11.302zM301.243 231.558c-3.81 0-6.551 3.05-6.551 6.881 0 3.832 2.766 6.934 6.603 6.934 3.837 0 6.551-3.05 6.551-6.881 0-3.832-2.766-6.908-6.603-6.908m0 15.535c-5.09 0-8.509-3.988-8.509-8.601 0-4.614 3.472-8.654 8.561-8.654 5.09 0 8.509 3.988 8.509 8.628 0 4.639-3.472 8.653-8.561 8.653M321.549 247.093c-5.247 0-8.509-3.806-8.509-8.601 0-4.796 3.367-8.654 8.378-8.654 2.819 0 4.567.808 6.238 2.216l-1.227 1.433c-1.279-1.12-2.714-1.903-5.09-1.903-3.705 0-6.341 3.128-6.341 6.881 0 4.014 2.557 6.96 6.629 6.96 1.905 0 3.68-.73 4.828-1.668v-4.145h-5.09v-1.694h6.917v6.647c-1.566 1.381-3.889 2.554-6.707 2.554M338.93 246.806h-1.904v-6.62l-6.943-10.087h2.297l5.637 8.34 5.69-8.34h2.193l-6.97 10.06zM0 195.094h1.592l1.175 14.023 8.639-14.101h1.226l1.123 14.1 8.69-14.022h1.723l-10.283 16.238h-1.383l-1.096-13.814-8.561 13.814H1.566zM30.51 188.76h1.932l-.574 2.111h-1.932l.575-2.11zm-1.513 6.334h1.54l-4.333 16.134h-1.54l4.333-16.134zM34.217 208.309c0-.522.104-1.147.182-1.564l2.74-10.244h-2.348l.391-1.433h2.35l1.383-5.161h1.566l-1.384 5.16h5.586l-.392 1.434h-5.585l-2.74 10.27a6.36 6.36 0 0 0-.157 1.355c0 1.33 1.018 1.929 2.636 1.929.705 0 1.435-.156 2.349-.495l-.418 1.512c-.861.312-1.461.417-2.27.417-2.14 0-3.863-.99-3.863-3.206M51.077 188.135h1.54l-2.688 9.956c1.592-1.902 3.393-3.388 6.107-3.388 3.21 0 5.298 2.033 5.298 5.109 0 .703-.156 1.511-.339 2.267l-2.401 9.097h-1.54l2.48-9.227a8.6 8.6 0 0 0 .26-1.981c0-2.398-1.592-3.884-4.15-3.884-2.766 0-5.794 2.503-6.76 5.995l-2.427 9.097h-1.54l6.212-23.093-.052.052z" fill="#194F7D" fill-rule="nonzero"/>
        <ellipse stroke="#194F7D" stroke-width=".652" cx="388.233" cy="194.494" rx="5.82" ry="5.812"/>
        <path d="m385.728 191.158 2.923.052c.809 0 1.435.26 1.853.678.34.365.548.86.522 1.46 0 1.042-.574 1.694-1.41 1.98l1.54 2.294h-1.644l-1.33-2.085h-1.097v2.033h-1.436l.105-6.412h-.026zm2.792 3.154c.679 0 1.097-.339 1.097-.886 0-.626-.418-.939-1.097-.939h-1.409v1.825h1.41z" fill="#194F7D" fill-rule="nonzero"/>
        <path d="M21.402 30.417h-5.09v9.332h5.09c4.672 0 6.394-1.773 6.394-4.875 0-3.101-2.27-4.457-6.394-4.457M18.87 12.016h-2.558v9.33h2.558c4.541 0 6.864-1.589 6.864-4.873 0-3.284-2.48-4.457-6.864-4.457m5.35 38.914H.653V.808h21.924c10.518 0 17.461 5.004 17.461 13.45 0 5.03-3.236 9.07-7.569 10.712 5.768.808 10.179 5.969 10.179 11.729 0 8.992-7.151 14.231-18.426 14.231M79.134 17.02l3.785 12.694h-7.57l3.785-12.694zM70.495.808 53.087 50.93h16.025l2.662-9.122h14.72l2.689 9.122h16.834L88.635.808h-18.14zM141.852 51.764c-13.911 0-24.325-7.141-24.325-23.875V.808h16.782v28.775c0 5.422 2.897 8.862 7.57 8.862 4.67 0 7.542-3.44 7.542-8.862V.808h16.782v27.055c0 16.734-10.44 23.875-24.325 23.875M200.602 51.764c-8.169 0-15.242-2.945-19.94-6.985l6.682-10.634c4.672 3.7 8.717 5.421 13.05 5.421 2.4 0 4.123-1.042 4.123-2.763 0-2.398-1.931-3.284-8.038-5.16-9.135-2.815-13.755-6.725-13.755-14.962C182.724 5.838 191.26 0 203.421 0c6.525 0 12.92 2.398 16.286 5.083l-6.577 10.92c-3.445-2.475-6.603-3.779-10.31-3.779-3.157 0-4.332 1.382-4.332 2.815 0 1.564 1.175 2.529 7.778 4.457 9.083 2.607 14.016 6.1 14.016 15.509 0 10.035-7.57 16.76-19.653 16.76M260.423 51.764c-15.268 0-26.204-10.712-26.204-25.673C234.219 11.13 245.572 0 260.684 0c8.039 0 13.415 3.44 17.748 7.142l-8.248 11.181c-2.818-2.736-5.507-4.665-9.84-4.665-5.585 0-9.708 4.796-9.708 12.016s3.993 12.406 10.674 12.406c3.707 0 7.126-1.642 10.101-4.378l8.065 10.92c-4.829 4.197-10.257 7.142-19.053 7.142M324.811.808v18.48h-12.658V.808h-16.756V50.93h16.756V33.44h12.658v17.49h16.756V.808zM436.074.808V50.93h32.52V38.16h-16.416V.808zM504.795 13.319c-6.108 0-10.519 5.291-10.519 12.485 0 7.194 4.542 12.641 10.65 12.641 6.106 0 10.517-5.29 10.517-12.485 0-7.193-4.541-12.641-10.648-12.641m0 38.445c-15.738 0-26.961-10.843-26.961-25.804C477.834 11 489.187 0 504.925 0c15.738 0 26.961 10.869 26.961 25.804 0 14.935-11.353 25.96-27.091 25.96M582.441.808 571.871 20.8 560.439.808h-16.286V50.93h15.816V26.482l7.96 14.57h7.648l7.778-14.57V50.93h16.756V.808zM636.755 30.417h-5.09v9.332h5.09c4.672 0 6.394-1.773 6.394-4.875 0-3.101-2.27-4.457-6.394-4.457m-2.558-18.401h-2.558v9.33h2.558c4.541 0 6.89-1.589 6.89-4.873 0-3.284-2.48-4.457-6.89-4.457m5.377 38.914h-23.595V.808h21.924c10.518 0 17.487 5.004 17.487 13.45 0 5.03-3.236 9.07-7.569 10.712C653.59 25.778 658 30.939 658 36.699c0 8.992-7.151 14.231-18.426 14.231M380.716 17.75h16.208v16.264h-16.208z" fill="#109AA9" fill-rule="nonzero"/>
        <path fill="#6EC6AA" fill-rule="nonzero" d="M380.716.808h16.208V17.75h-16.208zM380.716 34.014h16.208v16.942h-16.208z"/>
        <path fill="#4AC7EB" fill-rule="nonzero" d="M363.7 17.75h17.016v16.264H363.7zM396.924 17.75h16.94v16.264h-16.94z"/>
        <path d="M427.905 92.842v-.13c0-9.383 8.221-17.515 18.766-17.515 6.942 0 11.275 2.893 14.72 6.15l-2.532 2.373c-3.184-2.946-6.786-5.5-12.267-5.5-8.378 0-14.877 6.36-14.877 14.362v.13c0 8.08 6.708 14.492 15.164 14.492 5.194 0 9.24-2.424 12.346-5.578l2.453 1.955c-3.758 3.884-8.221 6.62-15.007 6.62-10.623 0-18.766-8.002-18.766-17.385M496.443 92.842v-.13c0-8.054-6.656-14.492-15.164-14.492-8.509 0-15.008 6.49-15.008 14.362v.13c0 8.08 6.656 14.492 15.164 14.492 8.509 0 15.008-6.49 15.008-14.362m-34.008 0v-.13c0-9.383 8.012-17.515 19-17.515s18.844 8.001 18.844 17.385v.13c0 9.383-8.012 17.515-19 17.515s-18.844-8.001-18.844-17.385M505.552 76.005h3.523v6.229c2.453-3.936 6.577-7.011 13.285-7.011 9.317 0 14.72 5.76 14.72 13.762v20.46h-3.55v-19.86c0-6.882-4.254-11.417-11.692-11.417-7.439 0-12.79 4.978-12.79 11.937v19.34h-3.523v-33.44h.027zM546.137 100.844V78.95h-5.35v-2.945h5.35V65.318h3.523v10.687h12.92v2.945h-12.92v21.581c0 4.796 3.106 6.49 7.36 6.49 1.801 0 3.315-.338 5.429-1.172v3.023c-1.88.782-3.68 1.173-6.003 1.173-5.716 0-10.335-2.815-10.335-9.175M592.803 96.908v-3.805c-3.106-.73-7.23-1.512-12.502-1.512-7.804 0-12.136 3.154-12.136 7.794v.13c0 4.848 5.063 7.663 10.675 7.663 7.516 0 13.937-4.197 13.937-10.296m-28.37 2.815v-.13c0-6.96 6.577-10.895 16.103-10.895 5.115 0 8.665.6 12.189 1.433v-1.433c0-6.75-4.542-10.217-12.137-10.217-4.463 0-8.17 1.12-11.562 2.684l-1.305-2.815c4.045-1.694 8.013-2.893 13.076-2.893 5.063 0 8.952 1.251 11.614 3.675 2.454 2.216 3.759 5.317 3.759 9.436v20.851h-3.472v-5.578c-2.531 3.206-7.073 6.36-14.093 6.36-7.021 0-14.225-3.545-14.225-10.478M600.737 92.842v-.13c0-9.383 8.222-17.515 18.766-17.515 6.942 0 11.275 2.893 14.72 6.15l-2.532 2.373c-3.184-2.946-6.785-5.5-12.266-5.5-8.378 0-14.877 6.36-14.877 14.362v.13c0 8.08 6.707 14.492 15.164 14.492 5.194 0 9.239-2.424 12.345-5.578l2.453 1.955c-3.758 3.884-8.221 6.62-15.007 6.62-10.623 0-18.766-8.002-18.766-17.385M640.826 100.844V78.95h-5.35v-2.945h5.35V65.318h3.55v10.687h12.92v2.945h-12.92v21.581c0 4.796 3.106 6.49 7.36 6.49 1.8 0 3.315-.338 5.429-1.172v3.023c-1.88.782-3.68 1.173-6.003 1.173-5.716 0-10.336-2.815-10.336-9.175M430.958 113.59h3.55v47.855h-3.55zM470.813 143.173c-.496-6.75-4.776-12.98-13.207-12.98-7.281 0-12.919 5.578-13.571 12.98h26.778zm-30.537 1.642v-.13c0-9.696 7.517-17.437 17.487-17.437 9.97 0 16.886 7.61 16.886 17.515 0 .6 0 .782-.078 1.303h-30.536c.652 8.315 7.23 13.189 14.433 13.189 5.715 0 9.604-2.294 12.632-5.239l2.453 1.955c-3.758 3.675-8.169 6.281-15.242 6.281-9.683 0-18.06-7.011-18.06-17.437M479.347 128.03h3.524v6.229c2.453-3.936 6.577-7.011 13.285-7.011 9.317 0 14.72 5.76 14.72 13.762v20.46h-3.55v-19.86c0-6.882-4.254-11.417-11.692-11.417-7.439 0-12.79 4.978-12.79 11.938v19.34h-3.523V128.03h.026zM514.79 157.274l2.089-2.554c4.045 2.815 8.508 4.379 13.206 4.379 4.985 0 8.874-2.503 8.874-6.36v-.13c0-3.936-4.62-5.37-9.735-6.7-6.003-1.563-12.632-3.205-12.632-9.174v-.13c0-5.37 4.985-9.253 12.136-9.253 4.41 0 9.37 1.46 13.076 3.675l-1.88 2.685c-3.392-2.033-7.438-3.337-11.326-3.337-5.064 0-8.378 2.503-8.378 5.839v.13c0 3.727 4.985 5.109 10.257 6.49 5.924 1.512 12.136 3.467 12.136 9.384v.13c0 5.969-5.637 9.774-12.71 9.774-5.35 0-11.197-1.955-15.086-4.848M576.256 143.173c-.496-6.75-4.777-12.98-13.207-12.98-7.282 0-12.92 5.578-13.572 12.98h26.779zm-30.537 1.642v-.13c0-9.696 7.517-17.437 17.487-17.437 9.97 0 16.886 7.61 16.886 17.515 0 .6 0 .782-.078 1.303h-30.537c.653 8.315 7.23 13.189 14.434 13.189 5.715 0 9.604-2.294 12.632-5.239l2.453 1.955c-3.758 3.675-8.17 6.281-15.242 6.281-9.683 0-18.061-7.011-18.061-17.437M581.606 157.274l2.088-2.554c4.046 2.815 8.535 4.379 13.207 4.379 4.985 0 8.873-2.503 8.873-6.36v-.13c0-3.936-4.62-5.37-9.735-6.7-6.003-1.563-12.632-3.205-12.632-9.174v-.13c0-5.37 4.985-9.253 12.136-9.253 4.411 0 9.37 1.46 13.076 3.675l-1.879 2.685c-3.393-2.033-7.438-3.337-11.327-3.337-5.063 0-8.378 2.503-8.378 5.839v.13c0 3.727 4.985 5.109 10.257 6.49 5.925 1.512 12.136 3.467 12.136 9.384v.13c0 5.969-5.637 9.774-12.71 9.774-5.35 0-11.197-1.955-15.086-4.848" fill="#104B86" fill-rule="nonzero"/>
        <g transform="translate(388.573 72.043)">
            <ellipse stroke="#004E7D" stroke-width="1.044" cx="9.004" cy="8.836" rx="9.004" ry="8.836"/>
            <path d="M4.959 3.727h4.463c1.227 0 2.192.34 2.845.99.548.548.835 1.304.835 2.216 0 1.59-.861 2.58-2.088 3.05l2.375 3.466h-2.505l-2.088-3.101H7.099v3.101H4.96V3.727zm4.306 4.718c1.044 0 1.645-.547 1.645-1.381 0-.939-.653-1.408-1.697-1.408h-2.14v2.789H9.265z" fill="#004E7D" fill-rule="nonzero"/>
        </g>
        <g fill="#194F7D" fill-rule="nonzero">
            <path d="M66.163 154.824c-6.603 5.917-15.764 8.888-27.431 8.888-11.667 0-21.01-2.945-27.483-8.81-6.499-5.864-9.735-14.935-9.735-27.211V71.782h19.235v55.909c0 2.424.21 4.822.6 7.167.418 2.346 1.253 4.431 2.584 6.23 1.305 1.798 3.132 3.284 5.455 4.405 2.323 1.12 5.455 1.694 9.37 1.694 6.864 0 11.588-1.564 14.198-4.718 2.61-3.153 3.915-8.08 3.915-14.804V71.756h19.236v55.909c0 12.172-3.315 21.216-9.918 27.133l-.026.026zM111.837 71.756v73.294h42.621v16.629H92.602V71.756zM147.124 88.385V71.756h71.644v16.63h-26.204v73.293h-19.236V88.385zM275.952 71.756c3.915 0 7.439.652 10.597 1.955 3.132 1.303 5.846 3.075 8.09 5.343a23.247 23.247 0 0 1 5.142 7.872c1.175 2.971 1.775 6.203 1.775 9.644 0 5.29-1.096 9.878-3.236 13.736-2.166 3.857-5.69 6.802-10.597 8.81v.26c2.375.678 4.333 1.694 5.873 3.076a17.018 17.018 0 0 1 3.784 4.9c.992 1.877 1.697 3.962 2.14 6.23.444 2.267.757 4.535.914 6.802.078 1.434.156 3.102.235 5.03.078 1.93.235 3.91.417 5.917.21 2.007.522 3.936.992 5.735.444 1.798 1.122 3.336 2.01 4.587h-19.236c-1.07-2.867-1.722-6.256-1.957-10.191-.235-3.936-.6-7.715-1.096-11.338-.653-4.692-2.036-8.133-4.176-10.322-2.114-2.19-5.586-3.284-10.414-3.284h-19.236v35.135h-19.235V71.756h47.214zm-6.864 40.687c4.41 0 7.726-1.017 9.918-3.024 2.192-2.007 3.315-5.29 3.315-9.826 0-4.535-1.097-7.533-3.315-9.514-2.192-1.98-5.507-2.97-9.918-2.97h-21.062v25.308h21.062v.026zM360.829 71.756l32.703 89.923h-19.967l-6.603-20.018h-32.703l-6.864 20.018h-19.34l33.068-89.923h19.706zm1.096 55.153L350.91 93.91h-.235l-11.38 32.998h22.655-.026z"/>
        </g>
    </g>
</svg>
